<svg id="Layer_1" data-name="Layer 1" xmlns="http://www.w3.org/2000/svg" viewBox="0 0 512 512"><defs><style>.cls-1{fill:#e7f5f9;}.cls-2{fill:#92d2ec;}.cls-12,.cls-14,.cls-15,.cls-16,.cls-17,.cls-19,.cls-20,.cls-21,.cls-22,.cls-23,.cls-24,.cls-25,.cls-3,.cls-4{fill:none;}.cls-3,.cls-4{stroke:#fff;}.cls-15,.cls-16,.cls-19,.cls-21,.cls-23,.cls-24,.cls-25,.cls-3{stroke-linecap:round;stroke-linejoin:round;}.cls-3{stroke-width:1.29px;}.cls-12,.cls-14,.cls-17,.cls-20,.cls-22,.cls-4{stroke-miterlimit:10;}.cls-4{stroke-width:1.26px;}.cls-5{fill:#0f84c6;}.cls-6{fill:#fff;}.cls-7{fill:#ffcd0a;}.cls-8{fill:#6fc8c0;}.cls-9{fill:#d98048;}.cls-10{fill:#0f141e;}.cls-11{fill:#121d35;}.cls-12{stroke:#52a99f;}.cls-12,.cls-14{stroke-width:1.37px;}.cls-13{fill:#136bb5;}.cls-14{stroke:#005b95;}.cls-15,.cls-16,.cls-19,.cls-21,.cls-23,.cls-24,.cls-25{stroke:#121d35;}.cls-15{stroke-width:1px;}.cls-16{stroke-width:0.99px;}.cls-17{stroke:#6fc8c0;stroke-width:1.08px;}.cls-18{fill:#f8a871;}.cls-19{stroke-width:1.02px;}.cls-20{stroke:#07688e;}.cls-20,.cls-22{stroke-width:1.46px;}.cls-21{stroke-width:1.03px;}.cls-22{stroke:#e9b620;}.cls-23{stroke-width:1.03px;}.cls-24{stroke-width:1.01px;}.cls-25{stroke-width:0.98px;}</style></defs><g id="OBJECTS"><path class="cls-1" d="M403.8,288.9A159.53,159.53,0,1,0,118.46,387H370.09A158.87,158.87,0,0,0,403.8,288.9Z"/><path class="cls-1" d="M462.67,322.65H421.45a2.72,2.72,0,0,1-2.72-2.73h0a2.72,2.72,0,0,1,2.72-2.72h41.22a2.72,2.72,0,0,1,2.72,2.72h0A2.72,2.72,0,0,1,462.67,322.65Z"/><path class="cls-1" d="M66.12,294H20.87a2.73,2.73,0,0,1-2.73-2.73h0a2.72,2.72,0,0,1,2.73-2.72H66.12a2.72,2.72,0,0,1,2.73,2.72h0A2.73,2.73,0,0,1,66.12,294Z"/><path class="cls-2" d="M471.49,356h-4.32a2.06,2.06,0,0,1-2.06-2.06V349.9a2.06,2.06,0,0,1,2.06-2.06h4.32a2.05,2.05,0,0,1,2.05,2.06V354A2.05,2.05,0,0,1,471.49,356Z"/><path class="cls-2" d="M54.62,335.56H48.89a2.72,2.72,0,0,1-2.72-2.72v-5.38a2.72,2.72,0,0,1,2.72-2.72h5.73a2.72,2.72,0,0,1,2.72,2.72v5.38A2.72,2.72,0,0,1,54.62,335.56Z"/><path class="cls-3" d="M326.92,110.18h19.59a1.84,1.84,0,0,1,1.82,1.84v9.61a1.83,1.83,0,0,1-1.82,1.84h-10.1l-6,5.15v-4.88l-3.52-.1a1.83,1.83,0,0,1-1.78-1.84V112A1.83,1.83,0,0,1,326.92,110.18Z"/><path class="cls-4" d="M456.69,199.16a5.94,5.94,0,1,1-5.94-6A6,6,0,0,1,456.69,199.16Z"/><path class="cls-4" d="M30.65,249.32a5.94,5.94,0,1,1-5.93-6A6,6,0,0,1,30.65,249.32Z"/><path class="cls-5" d="M192.13,119.34a.38.38,0,0,0,.66-.24l0-7.24v-11.7a2.59,2.59,0,0,0-2.59-2.59H158.67a2.59,2.59,0,0,0-2.59,2.59v12.7a2.59,2.59,0,0,0,2.59,2.59H188.8Z"/><path class="cls-6" d="M168.49,106.61a1.58,1.58,0,1,1-1.58-1.57A1.57,1.57,0,0,1,168.49,106.61Z"/><path class="cls-6" d="M175.24,106.59a1.58,1.58,0,1,1-1.58-1.57A1.57,1.57,0,0,1,175.24,106.59Z"/><path class="cls-6" d="M182,106.57a1.58,1.58,0,1,1-1.58-1.57A1.57,1.57,0,0,1,182,106.57Z"/><path class="cls-5" d="M436.89,149.27H400a6.48,6.48,0,0,1-6.48-6.48V108.53a4.91,4.91,0,0,1,4.91-4.92h38.43a4.91,4.91,0,0,1,4.91,4.92v35.83A4.91,4.91,0,0,1,436.89,149.27Z"/><path class="cls-6" d="M428.69,130.17l-2.86-2.86a2.52,2.52,0,0,0-1.84-.87,2.65,2.65,0,0,0-1.84.82l-1.64,1.64-.31-.16c-.2-.1-.35-.15-.51-.25a17.85,17.85,0,0,1-4.24-3.89,8.82,8.82,0,0,1-1.33-2.1c.41-.35.76-.76,1.12-1.12l.46-.46a2.5,2.5,0,0,0,0-3.79l-1.43-1.43a4.69,4.69,0,0,1-.46-.51l-1-1a2.66,2.66,0,0,0-1.84-.82,2.53,2.53,0,0,0-1.84.82L407.37,116a4.05,4.05,0,0,0-1.18,2.5,9.31,9.31,0,0,0,.67,3.89,20.81,20.81,0,0,0,4,6.7,24.92,24.92,0,0,0,8.19,6.39,13.28,13.28,0,0,0,4.6,1.38H424a4.08,4.08,0,0,0,3.07-1.33l.05,0a8,8,0,0,1,.92-.92l.66-.66A2.56,2.56,0,0,0,428.69,130.17Zm-1.17,2.66-.62.62c-.36.3-.66.66-1,1a2.43,2.43,0,0,1-1.84.77h-.26a10.84,10.84,0,0,1-4-1.23,23.41,23.41,0,0,1-7.62-6,22.19,22.19,0,0,1-3.73-6.19,6.27,6.27,0,0,1-.61-3.17,2.13,2.13,0,0,1,.71-1.48l1.74-1.74a1.06,1.06,0,0,1,.72-.36,1,1,0,0,1,.71.36l.92.92a5.05,5.05,0,0,0,.52.51l1.43,1.43a1.21,1.21,0,0,1,.36.72,1.08,1.08,0,0,1-.36.71l-.46.46-1.28,1.28,0,0a1.13,1.13,0,0,0-.31,1.28v0a11.74,11.74,0,0,0,1.69,2.76,19,19,0,0,0,4.65,4.25,5.48,5.48,0,0,0,.67.36,4.87,4.87,0,0,1,.51.25l.05.05a1.16,1.16,0,0,0,1.43-.25l1.79-1.79a.84.84,0,0,1,1.38,0l2.87,2.86A1,1,0,0,1,427.52,132.83Z"/><path class="cls-7" d="M81.34,184.68H40a7.27,7.27,0,0,1-7.26-7.27V139a5.51,5.51,0,0,1,5.51-5.51H81.34A5.51,5.51,0,0,1,86.85,139v40.16A5.51,5.51,0,0,1,81.34,184.68Z"/><path class="cls-6" d="M49.51,148.5a14.56,14.56,0,1,0,20.59,0A14.62,14.62,0,0,0,49.51,148.5Zm20.56,2.1H65.43a29.94,29.94,0,0,0-1.81-4.37A13.16,13.16,0,0,1,70.07,150.6ZM54.46,158a23.74,23.74,0,0,1,.69-5.65h9.31a23.23,23.23,0,0,1,.69,5.65Zm10.64,1.7a27.84,27.84,0,0,1-1,5.64H55.52a27.84,27.84,0,0,1-1-5.64Zm-5.29-14a12.6,12.6,0,0,1,2,.16A26.15,26.15,0,0,1,64,150.6H55.64a26.85,26.85,0,0,1,2.11-4.77A12.73,12.73,0,0,1,59.81,145.67Zm-3.82.56a28.8,28.8,0,0,0-1.8,4.37H49.55A13.08,13.08,0,0,1,56,146.23Zm-7.6,6.07H53.7A25.46,25.46,0,0,0,53,158H46.7A13.07,13.07,0,0,1,48.39,152.3Zm0,13a13,13,0,0,1-1.69-5.64H53a27.55,27.55,0,0,0,.88,5.64ZM49.55,167h4.82a36.31,36.31,0,0,0,1.8,4.42A13.11,13.11,0,0,1,49.55,167Zm10.26,4.93a13.81,13.81,0,0,1-1.72-.11,38.8,38.8,0,0,1-2-4.82h7.51a40.28,40.28,0,0,1-2,4.82A14.06,14.06,0,0,1,59.81,171.93Zm3.64-.51A36.23,36.23,0,0,0,65.24,167h4.83A13.19,13.19,0,0,1,63.45,171.42Zm7.77-6.13H65.74a26.91,26.91,0,0,0,.89-5.64h6.28A13,13,0,0,1,71.22,165.29ZM72.91,158H66.65a24.89,24.89,0,0,0-.74-5.65h5.31A13.07,13.07,0,0,1,72.91,158Z"/><path class="cls-8" d="M478.5,287.86H439.14a6.92,6.92,0,0,1-6.92-6.92V244.35a5.25,5.25,0,0,1,5.25-5.25h41a5.25,5.25,0,0,1,5.25,5.25v38.27A5.25,5.25,0,0,1,478.5,287.86Z"/><path class="cls-6" d="M464,259.5a6.26,6.26,0,1,0-6.26,6.25A6.26,6.26,0,0,0,464,259.5Zm-10.95,0a4.7,4.7,0,1,1,4.69,4.69A4.7,4.7,0,0,1,453.07,259.5Z"/><path class="cls-6" d="M457.13,278a.78.78,0,0,0,1.09.17.69.69,0,0,0,.17-.17l.82-1.14,4.61-7.14c2.15-3.66,4.11-7.68,4.11-10.17a10.17,10.17,0,1,0-20.33,0c0,2.42,1.85,6.28,3.92,9.85l4.8,7.46Zm.63-27.06a8.62,8.62,0,0,1,8.61,8.61c0,3.74-5.72,12.58-8.61,16.65-2.88-4.07-8.6-12.91-8.6-16.65A8.61,8.61,0,0,1,457.76,250.89Z"/><path class="cls-9" d="M94.74,247.13l-3.16,7.6s18.19,13,33.24,20.51a7,7,0,0,0,10-6.82v-.16A7,7,0,0,0,130,262C114.62,256.76,111.61,254.69,94.74,247.13Z"/><path class="cls-9" d="M94,255.4s-15.73,6.94-21.52-3.12l23.87-5.93Z"/><path class="cls-9" d="M143,220.12c-7.53,12.88-16.6,31.32-21.58,45.37-1.29,3.63,0,7.69,3.53,9.29l.13.06a7.19,7.19,0,0,0,9.32-3c11.38-20.52,21.5-36.51,21.5-36.51Z"/><path class="cls-8" d="M143.34,216.56S132,219,122.58,246.87l21.27,12.62,7.85-15.58Z"/><path class="cls-10" d="M132.87,252.47H108.32v-3.93h24.55a2,2,0,0,1,2,2h0A2,2,0,0,1,132.87,252.47Z"/><path class="cls-11" d="M118.08,252.46H62.13a3,3,0,0,1-2.86-2.1l-9.92-33.15a2.13,2.13,0,0,1,2-2.76h53.06a3,3,0,0,1,2.86,2.1Z"/><path class="cls-1" d="M85.79,232.14a4.24,4.24,0,1,1-4.92-3.42A4.23,4.23,0,0,1,85.79,232.14Z"/><path class="cls-9" d="M193.56,256.3s13.51,48.75,19,91.16l9.27-1.76S219,283.56,209.62,245.12Z"/><path class="cls-9" d="M221.77,343.57s13.95,20.6-2.79,29.86a2.66,2.66,0,0,1-3.31-.59l-.11-.13a2.67,2.67,0,0,1,.18-3.61c2.37-2.41,5.57-7.4.48-13.93,0,0-2.68.68-2.23,6a2.21,2.21,0,0,1-2.39,2.39h0a2.19,2.19,0,0,1-1.92-1.67c-.88-3.5-2.33-12.19,3.27-16.85Z"/><path class="cls-8" d="M195.32,216.56s8.63,2.52,17.85,31.69l-21.28,12.62-4.94-17Z"/><path class="cls-8" d="M194,215.77l-16-6.38-16.48.22L145,215.67a6.46,6.46,0,0,0-4,7.64l12.14,47.9h32.53l11.22-50.11A4.65,4.65,0,0,0,194,215.77Z"/><rect class="cls-11" x="153.08" y="271.21" width="32.53" height="5.21"/><line class="cls-12" x1="148.22" y1="252.04" x2="142.64" y2="230.02"/><line class="cls-12" x1="189.65" y1="253.18" x2="194.83" y2="230.02"/><path class="cls-13" d="M185.61,276.42H153.08s-15.76,4-26.31,77.83c-1.61,11.26-3,22.23-4.19,32.74H153.3l13.57-68.14,3,.78,5,67.36h28.87l.6-36.39S201.72,291.37,185.61,276.42Z"/><line class="cls-14" x1="169.84" y1="319.63" x2="159.73" y2="315.68"/><path class="cls-11" d="M196.49,181.45c-1.44-5.46-2-4.48-6.81-15.34-2.89-6.49-5.13-9.1-6.46-10.15h0a19.47,19.47,0,0,0-13.64-5.27,19.28,19.28,0,0,0-13.19,5h0c-1.27.84-3.66,3.29-6.83,10.41-4.84,10.86-5.36,9.88-6.8,15.34S143.15,197,154.4,199a8.34,8.34,0,0,1-2-3.79s4.71,6.41,11.12,6h12.12c6.41.39,11.12-6,11.12-6a8.34,8.34,0,0,1-2,3.79C196.09,197,197.93,186.91,196.49,181.45Z"/><path class="cls-9" d="M184.62,212,178,209.39l-2-17.46a10.27,10.27,0,0,1-4.81,2.62,8.75,8.75,0,0,1-5.43-1.11s-2.24-1.86-2.24-1.86l-2,18-7.22,2.65s.46,4.7,15.75,4.7S184.62,212,184.62,212Z"/><path class="cls-11" d="M162.23,192.21s4.2,8.11,9.21,6.95c5.22-1.22,5.19-8.08,5.19-8.08Z"/><path class="cls-11" d="M187.61,168.9c0,9.93-7.73,18-17.27,18s-17.26-8-17.26-18,7.73-16.69,17.26-16.69S187.61,159,187.61,168.9Z"/><path class="cls-9" d="M184.61,169.82a70,70,0,0,1-1.72,15.33c-.85,3.71-3.21,6.31-6.56,8.4l-.61.38a11.36,11.36,0,0,1-11.72.13h0c-3.63-2.15-6.17-5-6.95-9a102.91,102.91,0,0,1-1.58-15.28s-1.35-15.63,14.36-15.32S184.61,169.82,184.61,169.82Z"/><path class="cls-9" d="M157.19,184.5c-2.77,2.39-8.6-7.07-5.92-9.62s4.58,1.6,4.58,1.6l.54,3,.81,4,.21.91Z"/><path class="cls-15" d="M152.48,178.07s1.13-2.46,3.76,1.85"/><path class="cls-9" d="M182.88,184.56c2.81,2.34,8.47-7.22,5.75-9.73s-4.55,1.68-4.55,1.68l-.49,3-.74,4-.19.91Z"/><path class="cls-15" d="M187.48,178s-1.17-2.43-3.74,1.92"/><path class="cls-11" d="M155.68,174.69s6.28-8.49,4.83-17.09a12.37,12.37,0,0,0-5.88,8.4C153.42,172.06,155.68,174.69,155.68,174.69Z"/><path class="cls-11" d="M184.87,174.86s-7.55-9.24-6.1-17.84a14.37,14.37,0,0,1,6.28,9C186.26,172.06,184.87,174.86,184.87,174.86Z"/><path class="cls-11" d="M151,168.58h38s-4.28-16.11-20.33-17.07S151,168.58,151,168.58Z"/><path class="cls-11" d="M164.53,175.89a1.45,1.45,0,1,1-1.45-1.44A1.45,1.45,0,0,1,164.53,175.89Z"/><path class="cls-11" d="M177.94,175.89a1.45,1.45,0,1,1-1.45-1.44A1.45,1.45,0,0,1,177.94,175.89Z"/><path class="cls-16" d="M169.06,179.05v2a.76.76,0,0,0,.91.76l1-.22"/><path class="cls-11" d="M167.38,171.41l-8.77,1.05s.7-2.33,4.29-2.73S167.38,171.41,167.38,171.41Z"/><path class="cls-11" d="M172.45,171.41l8.77,1.05s-.7-2.33-4.29-2.73S172.45,171.41,172.45,171.41Z"/><circle class="cls-17" cx="161.66" cy="175.85" r="5.99"/><circle class="cls-17" cx="178.62" cy="175.85" r="5.99"/><path class="cls-17" d="M167.64,176.35s2.12-3.25,5,0"/><path class="cls-6" d="M165.36,184.51h9.55S170.44,189.85,165.36,184.51Z"/><path class="cls-18" d="M372.81,232.12,394.63,251a10,10,0,0,1,1.14,14h0a10,10,0,0,1-14,1.38l-21.61-17.52Z"/><path class="cls-5" d="M345,213.63c15.86,2.57,33.27,18.49,33.27,18.49l-14.4,20.6-19-15.53Z"/><path class="cls-18" d="M395.84,211.42l-15.68,44.8a9.15,9.15,0,0,0,6.07,11.83h0a9.15,9.15,0,0,0,11.61-7.4l8-47.57Z"/><path class="cls-18" d="M395.84,211.42s-3.08-4-3.69-15.32a1.76,1.76,0,0,1,1-1.68h0a1.75,1.75,0,0,1,2.41,1l1.56,4.73,8.75,12.92Z"/><path class="cls-18" d="M397.13,200.16l.38-15.75c0-.67.48-1.61,1.33-1.65h0a1.44,1.44,0,0,1,1.67,1.28l.35,11.17,2.08-13.06a1.19,1.19,0,0,1,1.32-1h0a1.2,1.2,0,0,1,1.07,1.25l-.68,14.17,2.84-11.65a1.34,1.34,0,0,1,1.39-1h0a1.34,1.34,0,0,1,1.24,1.49l-1.46,12.79,5.65-8a1.25,1.25,0,0,1,1.88-.05h0a1.25,1.25,0,0,1,.17,1.51l-4.75,9.63s-.3,6-5.73,11.77l-8.4-5Z"/><path class="cls-19" d="M397.13,200.16s5.94,0,6.05,5.36"/><path class="cls-5" d="M343.41,212.4l11.86,4.5c3.11,1.14,3.9,4.58,3.08,7.79l-5.48,67.87h-46.8l-3.61-70.09a4.65,4.65,0,0,1,2.82-5.33l16-6.38Z"/><line class="cls-20" x1="356.57" y1="246.73" x2="357.67" y2="233.18"/><path class="cls-18" d="M303.55,259.12s-12.71,49.43-15.89,92.07l-9.36-1.25s1.38-62.2,8.61-101.1Z"/><path class="cls-5" d="M304,217.94s-10.55,2.51-19.76,31.68l23.19,12.63,4.93-17Z"/><path class="cls-18" d="M338.05,210.79,337.14,194a18.66,18.66,0,0,1-5.93,2.7,9.07,9.07,0,0,1-5.6-1.15l-3.28-1.91-1,17.15h0l-4.95,2s3.11,5.29,13.47,4.75,13.58-5.08,13.58-5.08Z"/><path class="cls-11" d="M321.66,194.25s4.57,8.35,10,7.15c5.69-1.24,5.9-8.52,5.9-8.52Z"/><path class="cls-18" d="M345,171.21A72.49,72.49,0,0,1,343.27,187c-.87,3.82-3.31,6.49-6.75,8.64l-.63.39a11.68,11.68,0,0,1-12.06.14h0c-3.74-2.21-6.35-5.13-7.16-9.23a105.61,105.61,0,0,1-1.62-15.72s-1.39-16.09,14.78-15.78S345,171.21,345,171.21Z"/><path class="cls-18" d="M316.81,186.32c-2.85,2.46-8.85-7.28-6.09-9.91s4.72,1.65,4.72,1.65l.55,3.08.84,4.14.21.93Z"/><path class="cls-21" d="M312,179.7s1.17-2.53,3.88,1.9"/><path class="cls-18" d="M343.26,186.38c2.89,2.41,8.72-7.43,5.92-10s-4.68,1.72-4.68,1.72l-.51,3.09-.76,4.16-.2.93Z"/><path class="cls-21" d="M348,179.67s-1.21-2.5-3.85,2"/><path class="cls-11" d="M324.37,176.48a1.49,1.49,0,1,1-1.49-1.49A1.49,1.49,0,0,1,324.37,176.48Z"/><path class="cls-11" d="M338.18,176.48a1.5,1.5,0,1,1-1.5-1.49A1.5,1.5,0,0,1,338.18,176.48Z"/><path class="cls-19" d="M329,178.75v3a.79.79,0,0,0,.93.79l1.07-.23"/><path class="cls-11" d="M332.09,171l8.61,2.22s-.39-2.41-3.92-3.29S332.09,171,332.09,171Z"/><path class="cls-11" d="M326.75,171l-8.61,2.22s.39-2.41,3.91-3.29S326.75,171,326.75,171Z"/><path class="cls-11" d="M329.07,186.91a1.54,1.54,0,0,0,.64-.89c.21-.74.29-1.92-1.14-2.06-2.09-.19-5.61,3.84-8.68,1.53C319.89,185.49,322.83,190.94,329.07,186.91Z"/><path class="cls-11" d="M330.24,186.91a1.51,1.51,0,0,1-.65-.89c-.2-.74-.28-1.92,1.14-2.06,2.09-.19,5.59,3.84,8.65,1.53C339.38,185.49,336.45,190.94,330.24,186.91Z"/><path class="cls-11" d="M344.67,152.14c-5.29-3.74-15.36-.26-20.92,2.17a3.88,3.88,0,0,0-.93-2.89c-9.57,2.94-8.37,8.38-7.7,10.12-1.87,2-4.45,6.89.44,17.21,0,0,2.73-8.81,1.57-15.82,4.53,2,16.84,7,24.66,3.84a43.28,43.28,0,0,0,2.6,12c3-7.57,2.54-12.12,1.37-14.8C347.11,162.34,351.08,156.68,344.67,152.14Z"/><path class="cls-13" d="M344,387h30.07c-11.11-47.47-19.82-80.28-19.82-80.28l-1.38-14.15H330l1,49.69Z"/><path class="cls-13" d="M331.07,342.25l-1-49.69h-24c-17.94,26.85-7.79,74.56-7.79,74.56L301,387h30.05Z"/><polyline class="cls-14" points="331.07 342.25 331.07 328.17 337.86 317.65"/><path class="cls-5" d="M238.74,370.49s8.08-40.11,12.84-51a1.14,1.14,0,0,1,2.15.18c1.15,4.16,2.66,16.44,2,52.59l0,14.77h28.36l4.18-35.55s6.32-49.56-14.26-77.7H232.76s-21,30.59-23.8,72.85c-.62,9.4-1.68,23.76-3,40.4h29.22Z"/><line class="cls-20" x1="244.51" y1="315.68" x2="254.17" y2="319.63"/><polygon class="cls-7" points="244.4 195.51 224.56 200.97 232.76 268.69 274.39 268.69 282.6 200.67 260.61 195.22 244.4 195.51"/><rect class="cls-11" x="232.76" y="268.69" width="41.25" height="5.05"/><path class="cls-18" d="M263.57,244.29s17-6.82,26.11-2.07l.86,10.95-27.76,3.49Z"/><path class="cls-7" d="M299.9,266.35s-27.6,3.32-50-8.42l18.95-5.74,23.4-3.94Z"/><path class="cls-7" d="M281.26,200.46s10.72.69,17.55,21.92c7.26,22.55,7.79,40.3,2.75,43.28s-11.29-3.59-17.71-21.76S274.48,216,274.48,216Z"/><line class="cls-22" x1="279.06" y1="230.02" x2="280.71" y2="216.34"/><path class="cls-7" d="M224.56,201s-10.72.69-17.55,21.91c-7.26,22.55-7.79,40.31-2.75,43.29s12-3.6,18.46-21.76,8.61-27.94,8.61-27.94Z"/><line class="cls-22" x1="227.92" y1="228.71" x2="226.43" y2="216.34"/><path class="cls-18" d="M233.45,244.37A54.07,54.07,0,0,0,213,232.24a1.66,1.66,0,0,0-1.61.34h0a1.65,1.65,0,0,0,.4,2.73l7.66,3.58-10.06.67a2.89,2.89,0,0,0-2.7,3.23c.21,1.45,1.19,3.34,4,5.54Z"/><path class="cls-7" d="M210.7,248.33s36.44-7.19,53.73-7.12l6.9,17.06s-53.95,13.52-67.07,7.9Z"/><path class="cls-22" d="M233.45,244.37s22.91-3.57,31-3.16l1,2.41"/><polyline class="cls-22" points="232.43 265.97 271.33 258.27 265.41 243.62"/><path class="cls-11" d="M234.43,166.26l-8.14,10.63s29.27,22.48,53.35-1.59l-8.59-10.48Z"/><path class="cls-18" d="M260.56,194.69l-2.05-16.31a10.57,10.57,0,0,1-4.94,2.69,9,9,0,0,1-5.58-1.15l-2.3-1.9-1.24,16.9a3.81,3.81,0,0,1,0,.59l8.91,19.38,7.3-19.67A3.07,3.07,0,0,1,260.56,194.69Z"/><path class="cls-11" d="M244.4,178.66s4.31,9.1,9.44,7.91c5.36-1.24,5.34-9.06,5.34-9.06Z"/><path class="cls-11" d="M270.44,154.74c0,10.19-7.93,18.46-17.72,18.46S235,164.93,235,154.74s7.94-17.13,17.72-17.13S270.44,144.55,270.44,154.74Z"/><path class="cls-18" d="M267.36,155.69a71.37,71.37,0,0,1-1.77,15.73c-.86,3.81-3.29,6.47-6.73,8.62l-.62.39a11.68,11.68,0,0,1-12,.13h0c-3.72-2.2-6.33-5.11-7.13-9.2a105,105,0,0,1-1.62-15.67s-1.39-16,14.74-15.73S267.36,155.69,267.36,155.69Z"/><path class="cls-18" d="M239.22,170.75c-2.84,2.46-8.82-7.26-6.07-9.88s4.7,1.65,4.7,1.65l.55,3.07.83,4.13.22.93Z"/><path class="cls-23" d="M234.38,164.15s1.17-2.52,3.87,1.9"/><path class="cls-18" d="M265.59,170.81c2.88,2.41,8.69-7.41,5.9-10s-4.67,1.72-4.67,1.72l-.51,3.08-.76,4.15-.19.93Z"/><path class="cls-23" d="M270.31,164.12s-1.21-2.49-3.83,2"/><path class="cls-11" d="M267.81,151.76a14.61,14.61,0,0,0-5.74-8.74,12.52,12.52,0,0,0-7.38-3.61s-10.07-2.27-14.24,5.35a13,13,0,0,0-3.85,7c-1.25,6.22,1.07,8.93,1.07,8.93a30.22,30.22,0,0,0,5-11.93c3.06,2.53,9.24,5.68,21,5.52a35.53,35.53,0,0,0,4,6.58S269.06,158,267.81,151.76Z"/><path class="cls-11" d="M246.75,161.92a1.49,1.49,0,1,1-1.48-1.49A1.49,1.49,0,0,1,246.75,161.92Z"/><path class="cls-11" d="M260.52,161.92a1.49,1.49,0,1,1-1.49-1.49A1.49,1.49,0,0,1,260.52,161.92Z"/><path class="cls-24" d="M251.05,165.16v2a.79.79,0,0,0,.93.79l1.07-.23"/><path class="cls-11" d="M258.37,155s-4.36-.36-4.4,1.42c0,0,0,1.19,3.8,1.43s4.79,0,5.13-1.16S260.41,155.05,258.37,155Z"/><path class="cls-11" d="M245.35,155s4.35-.36,4.4,1.42c0,0,0,1.19-3.8,1.43s-4.79,0-5.14-1.16S243.31,155.05,245.35,155Z"/><path class="cls-24" d="M256.09,169.49s-1.57,2.52-5.59,1.81"/><line class="cls-25" x1="53.76" y1="386.99" x2="436.03" y2="386.99"/></g></svg>