<svg id="Layer_1" data-name="Layer 1" xmlns="http://www.w3.org/2000/svg" viewBox="0 0 512 512"><defs><style>.cls-1{fill:#e0e0e0;}.cls-2{fill:#263238;}.cls-3{fill:#fafafa;}.cls-4{fill:#ebebeb;}.cls-5{fill:#f5f5f5;}.cls-6{fill:#fff;}.cls-7{fill:#0b8260;}.cls-8{fill:#455a64;}.cls-9{fill:#ffbe9d;}.cls-10{opacity:0.3;}.cls-11{fill:#eb996e;}</style></defs><path class="cls-1" d="M449.85,93.52a2.29,2.29,0,0,0,.36-.07,1.24,1.24,0,0,0,.76-.71,1.92,1.92,0,0,0,.08-.78c0-.3,0-.62,0-1,0-.71,0-1.52,0-2.43s0-1.93,0-3c0-.28,0-.57,0-.85a1.16,1.16,0,0,0-.36-.72,1.1,1.1,0,0,0-.77-.32h-.95l-8.82,0-51.05,0a1.09,1.09,0,0,0-1.08,1V92a1.35,1.35,0,0,0,.14.79,1.08,1.08,0,0,0,.58.49,1.23,1.23,0,0,0,.39.06h16.66l22.95,0,15.48.06,4.2,0,1.1,0h.37a2.71,2.71,0,0,1-.37,0l-1.1,0-4.21,0-15.47,0-22.95,0H389.08a1.4,1.4,0,0,1-.49-.08,1.43,1.43,0,0,1-.77-.64,1.72,1.72,0,0,1-.18-1V84.67a1.43,1.43,0,0,1,1.42-1.31l51.05,0,8.82,0h1a1.34,1.34,0,0,1,1.28,1.22c0,.3,0,.58,0,.86,0,1.11,0,2.12,0,3s0,1.72,0,2.43v1a1.92,1.92,0,0,1-.11.81,1.24,1.24,0,0,1-.81.71A.81.81,0,0,1,449.85,93.52Z"/><path class="cls-1" d="M391.75,89.81l.16-.36a1.63,1.63,0,0,0,1,.37c.55,0,.79-.21.79-.49,0-.78-1.93-.29-1.93-1.47,0-.49.39-.91,1.22-.91a1.83,1.83,0,0,1,1,.29l-.15.36a1.66,1.66,0,0,0-.88-.26c-.54,0-.77.23-.77.5,0,.78,1.93.3,1.93,1.46,0,.49-.39.91-1.23.91A1.86,1.86,0,0,1,391.75,89.81Z"/><path class="cls-1" d="M397,89.11h-2a.82.82,0,0,0,.87.71.92.92,0,0,0,.7-.29l.24.28a1.23,1.23,0,0,1-.95.39A1.2,1.2,0,0,1,394.58,89a1.2,1.2,0,1,1,2.4,0S397,89.07,397,89.11Zm-2-.31h1.55a.78.78,0,0,0-1.55,0Z"/><path class="cls-1" d="M399.42,88.72v1.45H399v-.32a.9.9,0,0,1-.79.35c-.55,0-.89-.29-.89-.71s.25-.7,1-.7H399V88.7c0-.37-.22-.58-.65-.58a1.18,1.18,0,0,0-.76.26l-.19-.33a1.61,1.61,0,0,1,1-.31A.9.9,0,0,1,399.42,88.72Zm-.43.72V89.1h-.68c-.43,0-.55.17-.55.37s.2.39.53.39A.71.71,0,0,0,399,89.44Z"/><path class="cls-1" d="M401.53,87.74v.42h-.1a.71.71,0,0,0-.76.81v1.2h-.44V87.76h.42v.41A.93.93,0,0,1,401.53,87.74Z"/><path class="cls-1" d="M401.82,89a1.2,1.2,0,0,1,1.27-1.23,1.08,1.08,0,0,1,1,.51l-.33.22a.74.74,0,0,0-.65-.35.85.85,0,0,0,0,1.7.74.74,0,0,0,.65-.35l.33.21a1.07,1.07,0,0,1-1,.52A1.2,1.2,0,0,1,401.82,89Z"/><path class="cls-1" d="M406.89,88.79v1.38h-.43V88.84c0-.48-.24-.71-.65-.71a.72.72,0,0,0-.77.8v1.24h-.43V86.8H405v1.3a1.07,1.07,0,0,1,.85-.36A.93.93,0,0,1,406.89,88.79Z"/><path class="cls-1" d="M407.5,89.89a.31.31,0,1,1,.61,0,.31.31,0,1,1-.61,0Z"/><path class="cls-1" d="M408.53,89.89a.31.31,0,1,1,.61,0,.31.31,0,1,1-.61,0Z"/><path class="cls-1" d="M409.56,89.89a.3.3,0,0,1,.31-.31.29.29,0,0,1,.3.31.3.3,0,0,1-.3.31A.31.31,0,0,1,409.56,89.89Z"/><path class="cls-1" d="M407.43,201.9c0,.09-4.54.17-10.13.17s-10.12-.08-10.12-.17,4.53-.17,10.12-.17S407.43,201.8,407.43,201.9Z"/><path class="cls-1" d="M407.43,204.32c0,.09-4.54.17-10.13.17s-10.12-.08-10.12-.17,4.53-.17,10.12-.17S407.43,204.23,407.43,204.32Z"/><g id="Table"><path class="cls-2" d="M457,459.91c0,.14-95.46.25-213.18.25s-213.2-.11-213.2-.25,95.44-.26,213.2-.26S457,459.77,457,459.91Z"/></g><rect class="cls-3" x="41.02" y="40.93" width="366.9" height="286.99"/><path class="cls-1" d="M407.92,327.92c0-1.74-.08-113.79-.21-287l.21.21-366.87,0h0l.25-.26c0,103.49,0,201.35,0,287l-.23-.23,366.9.23L41,328.15h-.23v-.23c0-85.64,0-183.5,0-287v-.25h.28l366.87,0h.21v.21C408,214.13,407.92,326.18,407.92,327.92Z"/><path class="cls-4" d="M94.51,111.19H72.87a2.7,2.7,0,0,1-2.7-2.7V78.55a2.7,2.7,0,0,1,2.7-2.71H86.59L97.21,86.78v21.7A2.7,2.7,0,0,1,94.51,111.19Z"/><path class="cls-5" d="M86.59,75.84v8.42a2.52,2.52,0,0,0,2.52,2.52h8.1Z"/><path class="cls-1" d="M86.7,85a2.81,2.81,0,0,0,2.23,2.72,2,2,0,0,0,.26.06c1.06.19,8,1.43,8,1.27V86.78h-8.1S87.09,86.71,86.7,85Z"/><path class="cls-1" d="M94.51,111.19a3.13,3.13,0,0,0,.46,0,2.81,2.81,0,0,0,1.23-.58,2.69,2.69,0,0,0,1-1.9c0-.88,0-1.89,0-3,0-4.53,0-11,0-18.86l0,.06L86.53,75.9l.06,0H73.48a7,7,0,0,0-1,0A2.62,2.62,0,0,0,70.75,77a2.56,2.56,0,0,0-.48,1.33c0,.48,0,1,0,1.47V99.25c0,1.72,0,3.4,0,5v3.58a6.1,6.1,0,0,0,0,1.14,2.66,2.66,0,0,0,1.22,1.74,2.78,2.78,0,0,0,1,.35c.35,0,.71,0,1.06,0h4.09l12.32,0,3.35,0h0l-3.35,0-12.32,0H73.58a9.82,9.82,0,0,1-1.08,0,2.92,2.92,0,0,1-1.06-.37,2.79,2.79,0,0,1-1.3-1.84,6.55,6.55,0,0,1,0-1.17v-3.58c0-1.63,0-3.31,0-5V88.46c0-1.87,0-3.78,0-5.71V79.83c0-.5,0-1,0-1.48a2.77,2.77,0,0,1,.52-1.43,2.8,2.8,0,0,1,1.82-1.14,7.72,7.72,0,0,1,1.07,0H86.63l0,0,10.61,11,0,0v0c0,7.84,0,14.33,0,18.86,0,1.13,0,2.14,0,3a2.68,2.68,0,0,1-1,1.94,2.72,2.72,0,0,1-1.25.56,1.82,1.82,0,0,1-.36,0A.31.31,0,0,1,94.51,111.19Z"/><path class="cls-1" d="M97.21,86.78s-.07,0-.2,0l-.6,0-2.2,0-3.25,0H89A2.59,2.59,0,0,1,87.15,86a2.75,2.75,0,0,1-.53-.94,3.09,3.09,0,0,1-.12-1c0-.67,0-1.31,0-1.93,0-1.22,0-2.32,0-3.25s0-1.65,0-2.2c0-.24,0-.44,0-.59s0-.21,0-.21,0,.07,0,.21,0,.35,0,.59c0,.55,0,1.29,0,2.2s0,2,0,3.25c0,.62,0,1.26,0,1.93A2.45,2.45,0,0,0,89,86.69H91l3.25,0,2.2,0,.59,0Z"/><path class="cls-1" d="M86.18,83.36s-2.55.09-5.7.09-5.71,0-5.71-.09,2.56-.1,5.71-.1S86.18,83.31,86.18,83.36Z"/><path class="cls-1" d="M91.6,87.56s-3.77.1-8.41.1-8.42,0-8.42-.1,3.77-.09,8.42-.09S91.6,87.51,91.6,87.56Z"/><path class="cls-1" d="M91.6,91.77s-3.77.09-8.41.09-8.42,0-8.42-.09,3.77-.1,8.42-.1S91.6,91.71,91.6,91.77Z"/><path class="cls-1" d="M91.6,96s-3.77.09-8.41.09-8.42,0-8.42-.09,3.77-.1,8.42-.1S91.6,95.92,91.6,96Z"/><path class="cls-1" d="M91.6,100.17s-3.77.1-8.41.1-8.42,0-8.42-.1,3.77-.09,8.42-.09S91.6,100.12,91.6,100.17Z"/><path class="cls-1" d="M91.6,105.36s-3.77.09-8.41.09-8.42,0-8.42-.09,3.77-.1,8.42-.1S91.6,105.3,91.6,105.36Z"/><path class="cls-1" d="M97.08,120.16c0,.14-6,.26-13.4.26s-13.4-.12-13.4-.26,6-.25,13.4-.25S97.08,120,97.08,120.16Z"/><path class="cls-1" d="M92.31,123.67a72.69,72.69,0,0,1-8.63.26,72.59,72.59,0,0,1-8.62-.26,74,74,0,0,1,8.62-.25A74.13,74.13,0,0,1,92.31,123.67Z"/><path class="cls-4" d="M94.51,187.73H72.87a2.7,2.7,0,0,1-2.7-2.7V155.09a2.7,2.7,0,0,1,2.7-2.71H86.59l10.62,10.94V185A2.7,2.7,0,0,1,94.51,187.73Z"/><path class="cls-5" d="M86.59,152.38v8.42a2.52,2.52,0,0,0,2.52,2.52h8.1Z"/><path class="cls-1" d="M86.7,161.54a2.81,2.81,0,0,0,2.23,2.72l.26.06c1.06.19,8,1.43,8,1.27v-2.27h-8.1S87.09,163.25,86.7,161.54Z"/><path class="cls-1" d="M94.51,187.73s.16,0,.46,0a2.81,2.81,0,0,0,1.23-.58,2.69,2.69,0,0,0,1-1.9c0-.88,0-1.89,0-3,0-4.54,0-11,0-18.86l0,.06L86.53,152.44l.06,0H73.48a7,7,0,0,0-1,0,2.62,2.62,0,0,0-1.7,1.06,2.56,2.56,0,0,0-.48,1.33c0,.48,0,1,0,1.47v19.42c0,1.72,0,3.4,0,5v3.58a6.1,6.1,0,0,0,0,1.14,2.66,2.66,0,0,0,1.22,1.74,2.78,2.78,0,0,0,1,.35c.35,0,.71,0,1.06,0h4.09l12.32,0,3.35,0h0l-3.35,0-12.32,0H73.58a9.82,9.82,0,0,1-1.08,0,2.92,2.92,0,0,1-1.06-.37,2.79,2.79,0,0,1-1.3-1.84,6.55,6.55,0,0,1,0-1.17v-3.58c0-1.63,0-3.31,0-5V165c0-1.87,0-3.78,0-5.71v-2.92c0-.5,0-1,0-1.49a2.73,2.73,0,0,1,.52-1.42,2.8,2.8,0,0,1,1.82-1.14,7.72,7.72,0,0,1,1.07,0H86.63l0,0,10.61,11,0,0v0c0,7.84,0,14.32,0,18.86,0,1.13,0,2.14,0,3A2.71,2.71,0,0,1,95,187.7a1.82,1.82,0,0,1-.36,0Z"/><path class="cls-1" d="M97.21,163.32s-.07,0-.2,0l-.6,0-2.2,0-3.25,0H89a2.59,2.59,0,0,1-1.88-.88,2.75,2.75,0,0,1-.53-.94,3.09,3.09,0,0,1-.12-1c0-.67,0-1.31,0-1.93,0-1.22,0-2.32,0-3.25s0-1.65,0-2.2c0-.24,0-.44,0-.59s0-.21,0-.21,0,.07,0,.21,0,.35,0,.59c0,.55,0,1.29,0,2.2s0,2,0,3.25c0,.62,0,1.26,0,1.93A2.45,2.45,0,0,0,89,163.23H91l3.25,0,2.2,0H97Z"/><path class="cls-1" d="M86.18,159.9s-2.55.09-5.7.09-5.71,0-5.71-.09,2.56-.1,5.71-.1S86.18,159.84,86.18,159.9Z"/><path class="cls-1" d="M91.6,164.1c0,.05-3.77.1-8.41.1s-8.42,0-8.42-.1,3.77-.09,8.42-.09S91.6,164.05,91.6,164.1Z"/><path class="cls-1" d="M91.6,168.3c0,.06-3.77.1-8.41.1s-8.42,0-8.42-.1,3.77-.09,8.42-.09S91.6,168.25,91.6,168.3Z"/><path class="cls-1" d="M91.6,172.51c0,.05-3.77.09-8.41.09s-8.42,0-8.42-.09,3.77-.1,8.42-.1S91.6,172.45,91.6,172.51Z"/><path class="cls-1" d="M91.6,176.71s-3.77.1-8.41.1-8.42-.05-8.42-.1,3.77-.09,8.42-.09S91.6,176.66,91.6,176.71Z"/><path class="cls-1" d="M91.6,181.9s-3.77.09-8.41.09-8.42,0-8.42-.09,3.77-.1,8.42-.1S91.6,181.84,91.6,181.9Z"/><path class="cls-1" d="M97.08,196.7c0,.14-6,.26-13.4.26s-13.4-.12-13.4-.26,6-.25,13.4-.25S97.08,196.57,97.08,196.7Z"/><path class="cls-1" d="M92.31,200.21a72.69,72.69,0,0,1-8.63.26,72.59,72.59,0,0,1-8.62-.26,74,74,0,0,1,8.62-.25A74.13,74.13,0,0,1,92.31,200.21Z"/><path class="cls-4" d="M93,281.62H71.39a2.7,2.7,0,0,1-2.71-2.7V249a2.71,2.71,0,0,1,2.71-2.71H85.11l10.62,11v21.7A2.7,2.7,0,0,1,93,281.62Z"/><path class="cls-5" d="M85.11,246.27v8.43a2.51,2.51,0,0,0,2.51,2.52h8.11Z"/><path class="cls-1" d="M85.22,255.44a2.79,2.79,0,0,0,2.22,2.71l.26.06c1.06.19,8,1.43,8,1.27v-2.26H87.62S85.6,257.15,85.22,255.44Z"/><path class="cls-1" d="M93,281.62a3.32,3.32,0,0,0,.47-.05,2.77,2.77,0,0,0,1.23-.57,2.67,2.67,0,0,0,1-1.91c0-.87,0-1.89,0-3,0-4.53,0-11,0-18.85l0,0L85,246.33l.07,0H72a7.15,7.15,0,0,0-1,0,2.59,2.59,0,0,0-2.17,2.39c0,.48,0,1,0,1.47v2.92c0,1.93,0,3.84,0,5.71v10.79c0,1.72,0,3.4,0,5v3.58a7.09,7.09,0,0,0,0,1.14A2.64,2.64,0,0,0,70,281.17a2.35,2.35,0,0,0,1,.35,7.61,7.61,0,0,0,1.07,0h4.08l12.32,0h3.35l-3.35,0-12.32,0H72.1a10.06,10.06,0,0,1-1.09,0A2.64,2.64,0,0,1,70,281.3a2.79,2.79,0,0,1-1.3-1.84,6.56,6.56,0,0,1-.06-1.17v-3.58c0-1.63,0-3.31,0-5V250.26c0-.49,0-1,0-1.48a2.75,2.75,0,0,1,.51-1.43,2.85,2.85,0,0,1,1.82-1.14,7.77,7.77,0,0,1,1.07,0H85.15l0,0,10.61,11,0,0v0c0,7.83,0,14.32,0,18.85,0,1.13,0,2.14,0,3a2.71,2.71,0,0,1-2.26,2.5,1.68,1.68,0,0,1-.35,0Z"/><path class="cls-1" d="M95.73,257.22l-.21,0h-.6l-2.19,0-3.26,0H87.55a2.6,2.6,0,0,1-2.42-1.82,3.3,3.3,0,0,1-.12-1c0-.67,0-1.31,0-1.92,0-1.22,0-2.32,0-3.26s0-1.65,0-2.19c0-.25,0-.44,0-.6s0-.21,0-.21,0,.07,0,.21,0,.35,0,.6c0,.54,0,1.28,0,2.19s0,2,0,3.26v1.92a2.54,2.54,0,0,0,.61,1.85,2.45,2.45,0,0,0,1.74.82h1.92l3.26,0,2.19,0,.6,0C95.66,257.2,95.73,257.21,95.73,257.22Z"/><path class="cls-1" d="M84.7,253.79c0,.05-2.56.1-5.71.1s-5.7,0-5.7-.1,2.55-.1,5.7-.1S84.7,253.74,84.7,253.79Z"/><path class="cls-1" d="M90.11,258c0,.06-3.76.1-8.41.1s-8.41,0-8.41-.1,3.76-.09,8.41-.09S90.11,257.94,90.11,258Z"/><path class="cls-1" d="M90.11,262.2c0,.05-3.76.09-8.41.09s-8.41,0-8.41-.09,3.76-.1,8.41-.1S90.11,262.14,90.11,262.2Z"/><path class="cls-1" d="M90.11,266.4c0,.05-3.76.1-8.41.1s-8.41-.05-8.41-.1,3.76-.09,8.41-.09S90.11,266.35,90.11,266.4Z"/><path class="cls-1" d="M90.11,270.6c0,.06-3.76.1-8.41.1s-8.41,0-8.41-.1,3.76-.09,8.41-.09S90.11,270.55,90.11,270.6Z"/><path class="cls-1" d="M90.11,275.79s-3.76.09-8.41.09-8.41,0-8.41-.09,3.76-.1,8.41-.1S90.11,275.74,90.11,275.79Z"/><path class="cls-1" d="M95.6,290.6c0,.14-6,.25-13.4.25s-13.4-.11-13.4-.25,6-.26,13.4-.26S95.6,290.46,95.6,290.6Z"/><path class="cls-1" d="M90.82,294.11a76.77,76.77,0,0,1-8.62.25,76.88,76.88,0,0,1-8.63-.25,72.69,72.69,0,0,1,8.63-.26A72.59,72.59,0,0,1,90.82,294.11Z"/><path class="cls-4" d="M235.29,279.49H213.66a2.71,2.71,0,0,1-2.7-2.71V246.84a2.7,2.7,0,0,1,2.7-2.71h13.72l10.62,11v21.7A2.71,2.71,0,0,1,235.29,279.49Z"/><path class="cls-5" d="M227.38,244.13v8.43a2.52,2.52,0,0,0,2.52,2.52H238Z"/><path class="cls-1" d="M227.49,253.3a2.79,2.79,0,0,0,2.22,2.71,1.31,1.31,0,0,0,.27.06c1.05.19,8,1.43,8,1.27v-2.26h-8.1S227.87,255,227.49,253.3Z"/><path class="cls-1" d="M235.29,279.49s.17,0,.47-.06a2.77,2.77,0,0,0,1.23-.57,2.71,2.71,0,0,0,1-1.91c0-.87,0-1.89,0-3,0-4.53,0-11,0-18.85l0,0-10.63-10.94.07,0H214.27a7.19,7.19,0,0,0-1,0,2.63,2.63,0,0,0-1.69,1.06,2.59,2.59,0,0,0-.48,1.33c0,.48,0,1,0,1.47v8.63c0,3.74,0,7.35,0,10.79v8.61a5.36,5.36,0,0,0,.05,1.14,2.62,2.62,0,0,0,1.22,1.74,2.45,2.45,0,0,0,1,.35,9.32,9.32,0,0,0,1.06,0h4.08l12.33,0H235l.29,0h-1.17l-3.35,0-12.32,0h-4.08a9.81,9.81,0,0,1-1.08,0,2.69,2.69,0,0,1-1.06-.37,2.79,2.79,0,0,1-1.3-1.84,6.56,6.56,0,0,1-.06-1.17v-8.61c0-3.44,0-7.05,0-10.79v-8.63c0-.49,0-1,0-1.48a2.75,2.75,0,0,1,.51-1.43,2.79,2.79,0,0,1,1.82-1.13,6.46,6.46,0,0,1,1.07,0h13.15l0,0,10.61,11,0,0v0c0,7.83,0,14.32,0,18.85,0,1.13,0,2.14,0,3a2.75,2.75,0,0,1-1,1.94,2.6,2.6,0,0,1-1.26.56,1.85,1.85,0,0,1-.35,0Z"/><path class="cls-1" d="M238,255.08l-.21,0h-.6l-2.19,0-3.26,0h-1.92a2.6,2.6,0,0,1-1.88-.89,2.54,2.54,0,0,1-.54-.94,3,3,0,0,1-.11-1v-1.92c0-1.22,0-2.32,0-3.26s0-1.65,0-2.19c0-.25,0-.44,0-.6a.85.85,0,0,1,0-.21.85.85,0,0,1,0,.21c0,.16,0,.35,0,.6,0,.54,0,1.28,0,2.19s0,2,0,3.26v1.92a2.54,2.54,0,0,0,.61,1.85,2.45,2.45,0,0,0,1.74.82h1.92l3.26,0,2.19,0,.6,0C237.93,255.06,238,255.07,238,255.08Z"/><path class="cls-1" d="M227,251.65s-2.55.1-5.7.1-5.71-.05-5.71-.1,2.55-.09,5.71-.09S227,251.6,227,251.65Z"/><path class="cls-1" d="M232.39,255.85c0,.06-3.77.1-8.42.1s-8.41,0-8.41-.1,3.76-.09,8.41-.09S232.39,255.8,232.39,255.85Z"/><path class="cls-1" d="M232.39,260.06c0,.05-3.77.09-8.42.09s-8.41,0-8.41-.09,3.76-.1,8.41-.1S232.39,260,232.39,260.06Z"/><path class="cls-1" d="M232.39,264.26c0,.05-3.77.1-8.42.1s-8.41-.05-8.41-.1,3.76-.09,8.41-.09S232.39,264.21,232.39,264.26Z"/><path class="cls-1" d="M232.39,268.47s-3.77.09-8.42.09-8.41,0-8.41-.09,3.76-.1,8.41-.1S232.39,268.41,232.39,268.47Z"/><path class="cls-1" d="M232.39,273.65c0,.05-3.77.09-8.42.09s-8.41,0-8.41-.09,3.76-.1,8.41-.1S232.39,273.6,232.39,273.65Z"/><path class="cls-1" d="M237.87,288.46c0,.14-6,.25-13.4.25s-13.4-.11-13.4-.25,6-.25,13.4-.25S237.87,288.32,237.87,288.46Z"/><path class="cls-1" d="M233.1,292a74.27,74.27,0,0,1-8.63.25,74.13,74.13,0,0,1-8.63-.25,72.69,72.69,0,0,1,8.63-.26A72.83,72.83,0,0,1,233.1,292Z"/><path class="cls-4" d="M149.46,62.62l1,19.36a1.22,1.22,0,0,0,1.12,1.23h29.86a1.23,1.23,0,0,0,1.12-1.31V66.83a1.23,1.23,0,0,0-1.13-1.31l-18.36.14a1.05,1.05,0,0,1-.79-.38l-3.19-3.67a1,1,0,0,0-.79-.37h-7.74A1.23,1.23,0,0,0,149.46,62.62Z"/><rect class="cls-5" x="149.96" y="63.23" width="32.62" height="22.75"/><path class="cls-4" d="M147.36,65.27,149.85,89a.78.78,0,0,0,.72.74h31.79a.78.78,0,0,0,.72-.78l1.6-23.72a.8.8,0,0,0-.72-.91H148.08A.8.8,0,0,0,147.36,65.27Z"/><path class="cls-1" d="M179.42,101.78c0,.14-6,.25-13.4.25s-13.4-.11-13.4-.25,6-.25,13.4-.25S179.42,101.64,179.42,101.78Z"/><path class="cls-1" d="M174.65,105.29a74.27,74.27,0,0,1-8.63.25,74.27,74.27,0,0,1-8.63-.25A74.27,74.27,0,0,1,166,105,74.27,74.27,0,0,1,174.65,105.29Z"/><path class="cls-4" d="M150.51,153.62l1,19.36a1.21,1.21,0,0,0,1.12,1.22h29.86a1.22,1.22,0,0,0,1.12-1.3V157.82a1.24,1.24,0,0,0-1.13-1.31l-18.36.14a1,1,0,0,1-.79-.37l-3.19-3.67a1.05,1.05,0,0,0-.79-.38h-7.74A1.24,1.24,0,0,0,150.51,153.62Z"/><rect class="cls-5" x="151.01" y="154.23" width="32.62" height="22.75"/><path class="cls-4" d="M148.41,156.27,150.9,180a.78.78,0,0,0,.72.74h31.79a.78.78,0,0,0,.72-.77l1.6-23.73a.79.79,0,0,0-.72-.9H149.13A.8.8,0,0,0,148.41,156.27Z"/><path class="cls-1" d="M180.47,192.77c0,.14-6,.26-13.4.26s-13.4-.12-13.4-.26,6-.25,13.4-.25S180.47,192.63,180.47,192.77Z"/><path class="cls-1" d="M175.7,196.28a72.83,72.83,0,0,1-8.63.26,72.69,72.69,0,0,1-8.63-.26,74.13,74.13,0,0,1,8.63-.25A74.27,74.27,0,0,1,175.7,196.28Z"/><path class="cls-4" d="M134.73,265.81l1,19.36a1.21,1.21,0,0,0,1.12,1.22h29.86a1.22,1.22,0,0,0,1.12-1.31V270a1.24,1.24,0,0,0-1.13-1.31l-18.36.14a1,1,0,0,1-.79-.37l-3.19-3.67a1.05,1.05,0,0,0-.79-.38h-7.74A1.24,1.24,0,0,0,134.73,265.81Z"/><rect class="cls-5" x="135.23" y="266.41" width="32.62" height="22.75"/><path class="cls-4" d="M132.63,268.46l2.49,23.72a.78.78,0,0,0,.72.74h31.79a.78.78,0,0,0,.72-.77l1.6-23.73a.8.8,0,0,0-.72-.91H133.35A.82.82,0,0,0,132.63,268.46Z"/><path class="cls-1" d="M164.69,305c0,.14-6,.26-13.4.26s-13.4-.12-13.4-.26,6-.25,13.4-.25S164.69,304.82,164.69,305Z"/><path class="cls-1" d="M159.92,308.47a72.83,72.83,0,0,1-8.63.26,72.83,72.83,0,0,1-8.63-.26,74.27,74.27,0,0,1,8.63-.25A74.27,74.27,0,0,1,159.92,308.47Z"/><rect class="cls-6" x="243.99" y="57.29" width="215.91" height="189.88"/><path class="cls-1" d="M459.89,247.16c0-1.8-.08-75.62-.21-189.87l.21.21L244,57.54h0l.25-.25c0,69,0,134,0,189.87l-.22-.22,215.9.22-215.9.23h-.23v-.23c0-55.89,0-120.86,0-189.87V57H244l215.88,0h.22v.21C460,171.54,459.9,245.36,459.89,247.16Z"/><path class="cls-1" d="M460.52,76.76c0,.1-47.94.17-107.06.17s-107.06-.07-107.06-.17,47.92-.17,107.06-.17S460.52,76.67,460.52,76.76Z"/><path class="cls-4" d="M258.68,67.87a2.22,2.22,0,1,1-2.21-2.21A2.21,2.21,0,0,1,258.68,67.87Z"/><path class="cls-4" d="M266,67.87a2.22,2.22,0,1,1-2.22-2.21A2.22,2.22,0,0,1,266,67.87Z"/><path class="cls-4" d="M273.23,67.87A2.22,2.22,0,1,1,271,65.66,2.21,2.21,0,0,1,273.23,67.87Z"/><path class="cls-1" d="M377.74,109.72v34.06h41.39V109.72a2.93,2.93,0,0,0-2.93-2.93H380.68A2.94,2.94,0,0,0,377.74,109.72Z"/><polyline class="cls-5" points="379.69 125.28 379.96 112.78 416.18 112.78 416.18 119.91"/><rect class="cls-5" x="382.32" y="109.4" width="31.65" height="3.38"/><path class="cls-1" d="M382.32,109.4h.61l1.79,0,6.69,0,22.55-.08h.17v3.55c-.33.34-.1.09-.17.17H403.87l-8.93,0-12.62-.07h-.07v-.07c0-1.09,0-1.93,0-2.53,0-.27,0-.48,0-.64a.67.67,0,0,1,0-.21s0,.08,0,.23,0,.39,0,.66c0,.59,0,1.42,0,2.49l-.07-.07,12.62-.07,8.93,0H414c-.07.07.18-.17-.16.17,0-1.16,0-2.3,0-3.38l.16.17-22.43-.07-6.73,0-1.83,0h-.65Z"/><path class="cls-1" d="M417.65,152.3c0,.09-7.91.17-17.67.17s-17.66-.08-17.66-.17,7.91-.17,17.66-.17S417.65,152.2,417.65,152.3Z"/><path class="cls-4" d="M374.56,119.14l3.18,24.64h41.39V119.91H400.34l-3.65-3.2h-20A2.15,2.15,0,0,0,374.56,119.14Z"/><path class="cls-1" d="M407.74,129.56c0,.1-4.53.17-10.12.17s-10.12-.07-10.12-.17,4.53-.17,10.12-.17S407.74,129.47,407.74,129.56Z"/><path class="cls-1" d="M407.74,132c0,.09-4.53.17-10.12.17s-10.12-.08-10.12-.17,4.53-.17,10.12-.17S407.74,131.89,407.74,132Z"/><path class="cls-1" d="M409,156.9c0,.1-5,.17-11.08.17s-11.07-.07-11.07-.17,4.95-.17,11.07-.17S409,156.81,409,156.9Z"/><path class="cls-1" d="M287.72,109.72v34.06h41.39V109.72a2.94,2.94,0,0,0-2.94-2.93H290.65A2.93,2.93,0,0,0,287.72,109.72Z"/><polyline class="cls-5" points="289.66 125.28 289.93 112.78 326.15 112.78 326.15 119.91"/><rect class="cls-5" x="292.29" y="109.4" width="31.65" height="3.38"/><path class="cls-1" d="M292.29,109.4h.61l1.79,0,6.69,0,22.56-.08h.17v3.55c-.34.34-.1.09-.18.17H313.85l-8.94,0-12.62-.07h-.07v-.07c0-1.09,0-1.93,0-2.53,0-.27,0-.48,0-.64a1.66,1.66,0,0,1,0-.21,1.17,1.17,0,0,1,0,.23c0,.17,0,.39,0,.66,0,.59,0,1.42,0,2.49l-.07-.07,12.62-.07,8.93,0h10.09c-.08.07.17-.17-.16.17V109.4l.17.17-22.43-.07-6.73,0-1.84,0h-.65Z"/><path class="cls-1" d="M327.62,152.3c0,.09-7.91.17-17.66.17s-17.67-.08-17.67-.17,7.91-.17,17.67-.17S327.62,152.2,327.62,152.3Z"/><path class="cls-4" d="M284.53,119.14l3.19,24.64h41.39V119.91h-18.8l-3.65-3.2h-20A2.16,2.16,0,0,0,284.53,119.14Z"/><path class="cls-1" d="M317.72,129.56c0,.1-4.54.17-10.13.17s-10.12-.07-10.12-.17,4.53-.17,10.12-.17S317.72,129.47,317.72,129.56Z"/><path class="cls-1" d="M317.72,132c0,.09-4.54.17-10.13.17s-10.12-.08-10.12-.17,4.53-.17,10.12-.17S317.72,131.89,317.72,132Z"/><path class="cls-1" d="M318.94,156.9c0,.1-5,.17-11.07.17s-11.08-.07-11.08-.17,5-.17,11.08-.17S318.94,156.81,318.94,156.9Z"/><path class="cls-1" d="M286.42,182.06v34.05h41.39V182.06a2.94,2.94,0,0,0-2.94-2.94H289.35A2.94,2.94,0,0,0,286.42,182.06Z"/><polyline class="cls-5" points="288.36 197.62 288.63 185.11 324.85 185.11 324.85 192.25"/><rect class="cls-5" x="290.99" y="181.73" width="31.65" height="3.38"/><path class="cls-1" d="M291,181.73h.61l1.79,0,6.69-.05,22.56-.07h.17v3.54c-.34.34-.1.1-.18.17H312.55l-8.94,0L291,185.19h-.07v-.08c0-1.08,0-1.93,0-2.53,0-.27,0-.48,0-.64a1.66,1.66,0,0,1,0-.21,1,1,0,0,1,0,.24c0,.16,0,.38,0,.65,0,.59,0,1.42,0,2.49L291,185l12.62-.07,8.93,0h10.09c-.08.08.17-.16-.17.17,0-1.15,0-2.3,0-3.37l.16.16-22.43-.07-6.73-.05-1.83,0h-.48C291.05,181.74,291,181.74,291,181.73Z"/><path class="cls-1" d="M326.32,224.63c0,.1-7.91.17-17.66.17s-17.67-.07-17.67-.17,7.91-.17,17.67-.17S326.32,224.54,326.32,224.63Z"/><path class="cls-4" d="M283.23,191.47l3.19,24.64h41.39V192.25H309L305.36,189h-20A2.15,2.15,0,0,0,283.23,191.47Z"/><path class="cls-1" d="M316.42,201.9c0,.09-4.54.17-10.13.17s-10.12-.08-10.12-.17,4.53-.17,10.12-.17S316.42,201.8,316.42,201.9Z"/><path class="cls-1" d="M316.42,204.32c0,.09-4.54.17-10.13.17s-10.12-.08-10.12-.17,4.53-.17,10.12-.17S316.42,204.23,316.42,204.32Z"/><path class="cls-1" d="M317.64,229.24c0,.09-5,.17-11.07.17s-11.08-.08-11.08-.17,5-.17,11.08-.17S317.64,229.14,317.64,229.24Z"/><path class="cls-1" d="M377.43,182.06v34.05h41.39V182.06a2.94,2.94,0,0,0-2.94-2.94H380.36A2.94,2.94,0,0,0,377.43,182.06Z"/><polyline class="cls-5" points="379.37 197.62 379.64 185.11 415.87 185.11 415.87 192.25"/><rect class="cls-5" x="382" y="181.73" width="31.65" height="3.38"/><path class="cls-1" d="M382,181.73h.61l1.79,0,6.69-.05,22.56-.07h.17v3.54c-.34.34-.1.1-.18.17H403.55l-8.93,0L382,185.19h-.07v-.08c0-1.08,0-1.93,0-2.53,0-.27,0-.48,0-.64a1.66,1.66,0,0,1,0-.21,1.35,1.35,0,0,1,0,.24c0,.16,0,.38,0,.65,0,.59,0,1.42,0,2.49L382,185l12.62-.07,8.93,0h10.09c-.07.08.18-.16-.16.17v-3.37l.17.16-22.43-.07-6.73-.05-1.84,0h-.48Z"/><path class="cls-1" d="M417.33,224.63c0,.1-7.91.17-17.66.17s-17.67-.07-17.67-.17,7.91-.17,17.67-.17S417.33,224.54,417.33,224.63Z"/><path class="cls-4" d="M374.24,191.47l3.19,24.64h41.39V192.25H400L396.37,189h-20A2.16,2.16,0,0,0,374.24,191.47Z"/><path class="cls-1" d="M408.65,229.24c0,.09-5,.17-11.07.17s-11.08-.08-11.08-.17,5-.17,11.08-.17S408.65,229.14,408.65,229.24Z"/><path class="cls-3" d="M295.63,261.05H220.09l-14.43,21.42-14.07-21.42h-74.2a8.58,8.58,0,0,1-8.59-8.59V105.29a8.59,8.59,0,0,1,8.59-8.59H295.63a8.6,8.6,0,0,1,8.59,8.59V252.46A8.59,8.59,0,0,1,295.63,261.05Z"/><path class="cls-2" d="M295.63,261.05l.47,0a9.67,9.67,0,0,0,1.39-.2,8.59,8.59,0,0,0,4.61-2.8,8.38,8.38,0,0,0,1.81-3.56,9.67,9.67,0,0,0,.2-1.12c0-.39.05-.78,0-1.19v-2.56c0-3.54,0-7.63,0-12.23,0-18.42,0-45.07-.08-78,0-16.47,0-34.5,0-53.85a8.39,8.39,0,0,0-5.79-8.2,10,10,0,0,0-3.63-.41h-47l-68.3,0H117.66c-.39,0-.76,0-1.14,0a8.77,8.77,0,0,0-1.12.2,8.31,8.31,0,0,0-6.11,6.13,17.44,17.44,0,0,0-.24,4.17v12.67q0,8.42,0,16.72v32.76c0,21.53,0,42.38,0,62.37v18.49a19.24,19.24,0,0,0,.16,3.58,8.36,8.36,0,0,0,3.93,5.55,8.21,8.21,0,0,0,3.26,1.11c1.13.12,2.34.05,3.51.07h20.78l50.91,0h.11l.06.08,14.06,21.43h-.29Q213.23,270.95,220,261l0-.07h.08l55.69.07,14.77,0,3.79,0,1.29,0s-.43,0-1.29,0l-3.79,0-14.77,0-55.69.07.13-.06-14.41,21.42-.15.22-.14-.22-14.09-21.4.16.08-50.92,0H119.89c-1.18,0-2.34.05-3.57-.07a8.86,8.86,0,0,1-7.59-7,20.69,20.69,0,0,1-.17-3.67V232c0-20,0-40.84,0-62.36q0-16.15,0-32.77V105.38a9.9,9.9,0,0,1,.26-2.17,8.78,8.78,0,0,1,6.49-6.5,11.68,11.68,0,0,1,1.18-.22c.4,0,.81,0,1.19,0h61.6l68.29,0h47a10.69,10.69,0,0,1,3.76.44,8.86,8.86,0,0,1,5.4,5,9.12,9.12,0,0,1,.68,3.64c0,19.35,0,37.38,0,53.85,0,32.91-.06,59.56-.08,78,0,4.6,0,8.69,0,12.23,0,.89,0,1.74,0,2.56,0,.4,0,.81-.05,1.2a8.21,8.21,0,0,1-.21,1.14,8.42,8.42,0,0,1-1.85,3.6,8.54,8.54,0,0,1-4.68,2.78,7.69,7.69,0,0,1-1.4.17Z"/><path class="cls-2" d="M184.72,187.2c0,1.91-1.43,3.09-3.72,3.09h-1.72v2.36h-2v-8.56H181C183.29,184.09,184.72,185.28,184.72,187.2Zm-2,0c0-.94-.62-1.49-1.82-1.49h-1.62v3h1.62C182.1,188.68,182.72,188.13,182.72,187.2Z"/><path class="cls-2" d="M191.75,188.9v3.75H190v-.82a2.14,2.14,0,0,1-2,.92c-1.54,0-2.46-.86-2.46-2s.82-2,2.83-2h1.51c0-.82-.49-1.3-1.51-1.3a3.17,3.17,0,0,0-1.9.61l-.68-1.33a5.06,5.06,0,0,1,2.83-.79C190.59,186,191.75,186.91,191.75,188.9Zm-1.91,1.67v-.67h-1.31c-.89,0-1.17.33-1.17.77s.4.79,1.08.79A1.4,1.4,0,0,0,189.84,190.57Z"/><path class="cls-2" d="M192.84,192l.63-1.37a4.51,4.51,0,0,0,2.29.64c.88,0,1.21-.24,1.21-.6,0-1.08-4,0-4-2.61,0-1.24,1.12-2.12,3-2.12a5.37,5.37,0,0,1,2.53.57l-.64,1.36a3.71,3.71,0,0,0-1.89-.49c-.86,0-1.22.27-1.22.61,0,1.12,4,0,4,2.63,0,1.22-1.14,2.09-3.11,2.09A5.65,5.65,0,0,1,192.84,192Z"/><path class="cls-2" d="M199.33,192l.63-1.37a4.51,4.51,0,0,0,2.29.64c.88,0,1.21-.24,1.21-.6,0-1.08-4,0-4-2.61,0-1.24,1.13-2.12,3.05-2.12a5.4,5.4,0,0,1,2.53.57l-.64,1.36a3.73,3.73,0,0,0-1.89-.49c-.86,0-1.22.27-1.22.61,0,1.12,4,0,4,2.63,0,1.22-1.14,2.09-3.11,2.09A5.65,5.65,0,0,1,199.33,192Z"/><path class="cls-2" d="M216.89,186.08l-2.38,6.57h-1.84l-1.48-4.08-1.52,4.08h-1.84l-2.37-6.57h1.8l1.55,4.44,1.61-4.44H212l1.56,4.44,1.6-4.44Z"/><path class="cls-2" d="M217.11,189.36a3.62,3.62,0,1,1,3.62,3.39A3.38,3.38,0,0,1,217.11,189.36Zm5.29,0a1.69,1.69,0,1,0-1.67,1.82A1.66,1.66,0,0,0,222.4,189.36Z"/><path class="cls-2" d="M229.69,186v1.76l-.43,0a1.62,1.62,0,0,0-1.75,1.84v3.1H225.6v-6.57h1.83v.86A2.65,2.65,0,0,1,229.69,186Z"/><path class="cls-2" d="M237.46,183.58v9.07h-1.82v-.76a2.53,2.53,0,0,1-2.06.86,3.39,3.39,0,0,1,0-6.77,2.51,2.51,0,0,1,2,.79v-3.19Zm-1.87,5.78a1.69,1.69,0,1,0-1.68,1.82A1.67,1.67,0,0,0,235.59,189.36Z"/><path class="cls-4" d="M158.6,239.28H146.21a5.32,5.32,0,0,1-5.32-5.32V212.73a5.32,5.32,0,0,1,5.32-5.32H158.6a5.32,5.32,0,0,1,5.32,5.32V234A5.32,5.32,0,0,1,158.6,239.28Z"/><path class="cls-4" d="M212.94,239.28H201.18a5.32,5.32,0,0,1-5.32-5.32V212.73a5.32,5.32,0,0,1,5.32-5.32h11.76a5.32,5.32,0,0,1,5.32,5.32V234A5.31,5.31,0,0,1,212.94,239.28Z"/><path class="cls-4" d="M186,239.28H174.24a5.32,5.32,0,0,1-5.32-5.32V212.73a5.33,5.33,0,0,1,5.32-5.32H186a5.32,5.32,0,0,1,5.32,5.32V234A5.32,5.32,0,0,1,186,239.28Z"/><path class="cls-4" d="M240.38,239.28H228a5.32,5.32,0,0,1-5.32-5.32V212.73a5.32,5.32,0,0,1,5.32-5.32h12.4a5.32,5.32,0,0,1,5.32,5.32V234A5.32,5.32,0,0,1,240.38,239.28Z"/><path class="cls-4" d="M266.81,239.28h-12.4a5.32,5.32,0,0,1-5.32-5.32V212.73a5.32,5.32,0,0,1,5.32-5.32h12.4a5.32,5.32,0,0,1,5.32,5.32V234A5.32,5.32,0,0,1,266.81,239.28Z"/><path class="cls-7" d="M155.38,222.5l2.46,1.33-1.11,1.85-2.48-1.46,0,2.73h-2.12l0-2.76-2.49,1.49-1.08-1.85,2.46-1.33-2.46-1.36,1.08-1.85,2.49,1.49,0-2.76h2.12l0,2.76,2.48-1.49,1.11,1.85Z"/><path class="cls-7" d="M182.22,222.35l2.46,1.34-1.11,1.85-2.48-1.47,0,2.73H179l0-2.75-2.49,1.49-1.08-1.85,2.46-1.34L175.46,221l1.08-1.86,2.49,1.49,0-2.75h2.12l0,2.75,2.48-1.49,1.11,1.86Z"/><path class="cls-7" d="M209.71,222.35l2.46,1.34-1.11,1.85-2.48-1.47,0,2.73H206.5l0-2.75L204,225.54,203,223.69l2.46-1.34L203,221l1.09-1.86,2.48,1.49,0-2.75h2.12l0,2.75,2.48-1.49,1.11,1.86Z"/><path class="cls-7" d="M236.33,222.35l2.47,1.34-1.11,1.85-2.49-1.47.05,2.73h-2.12l0-2.75-2.49,1.49-1.08-1.85,2.46-1.34L229.58,221l1.08-1.86,2.49,1.49,0-2.75h2.12l-.05,2.75,2.49-1.49L238.8,221Z"/><path class="cls-2" d="M158.36,239.48H146.45a5.57,5.57,0,0,1-5.56-5.56V212.77a5.57,5.57,0,0,1,5.56-5.55h11.92a5.56,5.56,0,0,1,5.55,5.55v21.15A5.57,5.57,0,0,1,158.36,239.48Zm-11.91-31.87a5.17,5.17,0,0,0-5.16,5.16v21.15a5.16,5.16,0,0,0,5.16,5.16h11.92a5.17,5.17,0,0,0,5.16-5.16V212.77a5.17,5.17,0,0,0-5.16-5.16Z"/><path class="cls-2" d="M186,239.48H174.11a5.57,5.57,0,0,1-5.55-5.56V212.77a5.56,5.56,0,0,1,5.55-5.55H186a5.56,5.56,0,0,1,5.56,5.55v21.15A5.57,5.57,0,0,1,186,239.48Zm-11.92-31.87a5.17,5.17,0,0,0-5.16,5.16v21.15a5.17,5.17,0,0,0,5.16,5.16H186a5.16,5.16,0,0,0,5.16-5.16V212.77a5.17,5.17,0,0,0-5.16-5.16Z"/><path class="cls-2" d="M212.94,239.48H201a5.57,5.57,0,0,1-5.56-5.56V212.77a5.57,5.57,0,0,1,5.56-5.55h11.92a5.56,5.56,0,0,1,5.55,5.55v21.15A5.57,5.57,0,0,1,212.94,239.48ZM201,207.61a5.17,5.17,0,0,0-5.16,5.16v21.15a5.16,5.16,0,0,0,5.16,5.16h11.92a5.17,5.17,0,0,0,5.16-5.16V212.77a5.17,5.17,0,0,0-5.16-5.16Z"/><path class="cls-2" d="M240.15,239.48H228.23a5.57,5.57,0,0,1-5.56-5.56V212.77a5.57,5.57,0,0,1,5.56-5.55h11.92a5.56,5.56,0,0,1,5.55,5.55v21.15A5.57,5.57,0,0,1,240.15,239.48Zm-11.92-31.87a5.17,5.17,0,0,0-5.16,5.16v21.15a5.16,5.16,0,0,0,5.16,5.16h11.92a5.16,5.16,0,0,0,5.16-5.16V212.77a5.17,5.17,0,0,0-5.16-5.16Z"/><path class="cls-2" d="M266.57,239.48H254.65a5.57,5.57,0,0,1-5.55-5.56V212.77a5.56,5.56,0,0,1,5.55-5.55h11.92a5.56,5.56,0,0,1,5.55,5.55v21.15A5.57,5.57,0,0,1,266.57,239.48Zm-11.92-31.87a5.17,5.17,0,0,0-5.16,5.16v21.15a5.16,5.16,0,0,0,5.16,5.16h11.92a5.16,5.16,0,0,0,5.16-5.16V212.77a5.17,5.17,0,0,0-5.16-5.16Z"/><path class="cls-7" d="M267,231a40.68,40.68,0,0,1-6.38.25,40.57,40.57,0,0,1-6.38-.25,39.8,39.8,0,0,1,6.38-.26A39.9,39.9,0,0,1,267,231Z"/><circle class="cls-7" cx="207.56" cy="148.63" r="25.74"/><path class="cls-6" d="M203,144h-.43v-2.4a5,5,0,1,1,10,0v2h-.43v-2a4.59,4.59,0,0,0-9.18,0V144Z"/><path class="cls-6" d="M213.94,160.73H201.18a2.12,2.12,0,0,1-2.12-2.11V145.85a2.12,2.12,0,0,1,2.12-2.11h12.76a2.12,2.12,0,0,1,2.12,2.11v12.77A2.11,2.11,0,0,1,213.94,160.73Zm-12.76-16.56a1.69,1.69,0,0,0-1.69,1.68v12.77a1.69,1.69,0,0,0,1.69,1.69h12.76a1.69,1.69,0,0,0,1.69-1.69V145.85a1.69,1.69,0,0,0-1.69-1.68Z"/><path class="cls-6" d="M207.62,152.65a2,2,0,1,1,2-2A2,2,0,0,1,207.62,152.65Zm0-3.57a1.58,1.58,0,0,0,0,3.15,1.58,1.58,0,1,0,0-3.15Z"/><rect class="cls-6" x="207.35" y="152.35" width="0.43" height="3.62"/><circle class="cls-1" cx="286.97" cy="111.31" r="7.95"/><path class="cls-6" d="M284.38,114.12a.25.25,0,0,1-.17-.42l5.15-5.15a.25.25,0,0,1,.34,0,.24.24,0,0,1,0,.35l-5.14,5.15A.29.29,0,0,1,284.38,114.12Z"/><path class="cls-6" d="M289.53,114.12a.25.25,0,0,1-.17-.08l-5.15-5.14a.25.25,0,1,1,.35-.35l5.14,5.15a.25.25,0,0,1-.17.42Z"/><path class="cls-8" d="M82.52,411.18s-25.68-29.55-35.36-59.1-5.09-26.16-5.09-26.16,13.08,28.71,23,42.57S92.69,402.7,92.69,402.7Z"/><path class="cls-8" d="M87.63,330.53a1.49,1.49,0,0,0-2.78,1c1.57,10.38,5,34.74,4.82,50.53-.18,20.52,0,28.46,0,28.46h10.69s-1.9-42.43-4.31-55.36C94.35,346,90.76,336,87.63,330.53Z"/><path class="cls-8" d="M93.46,407a112.87,112.87,0,0,0,8.79-31.9c.88-7.56-.69-17.77-3-31.39a84.32,84.32,0,0,1-1.35-15.1,2.55,2.55,0,0,1,4.79-1.2c1.29,2.3,5,10.16,6,15.09,2.58,13.45,5.51,20.18,3.27,32.94s-10.52,32.42-10.52,32.42Z"/><path class="cls-8" d="M103.08,407.88s28.19-60.58,30.15-69.56,8.59-29.7,9.37-28.53,2,12.12-3.12,24.62-26.77,75.32-26.77,75.32h-9.63"/><path class="cls-2" d="M90.37,405.17a5.79,5.79,0,0,1-.79-.54c-.5-.38-1.26-.91-2.18-1.67a99.14,99.14,0,0,1-7.58-6.69A127.16,127.16,0,0,1,59.37,370a173.2,173.2,0,0,1-14-30.24c-1.41-4-2.45-7.32-3.12-9.61-.34-1.14-.58-2-.75-2.64a5.53,5.53,0,0,1-.21-.93,5.64,5.64,0,0,1,.33.9l.86,2.6c.73,2.27,1.83,5.54,3.3,9.53a182.32,182.32,0,0,0,14.07,30.08A132.63,132.63,0,0,0,80.12,396c3,3,5.6,5.28,7.43,6.81.9.78,1.63,1.34,2.11,1.75A4.42,4.42,0,0,1,90.37,405.17Z"/><path class="cls-2" d="M93.46,376.11a10.78,10.78,0,0,1-.26-1.78c-.13-1.25-.3-2.89-.52-4.85-.44-4.1-1.14-9.75-2.13-16s-2.11-11.8-3-15.83c-.41-1.93-.76-3.54-1-4.77a9.65,9.65,0,0,1-.32-1.77,10.35,10.35,0,0,1,.54,1.71c.32,1.11.74,2.73,1.22,4.74,1,4,2.15,9.6,3.15,15.82s1.63,11.9,2,16c.17,2.05.28,3.72.33,4.87A10.75,10.75,0,0,1,93.46,376.11Z"/><path class="cls-2" d="M100.06,327a4.06,4.06,0,0,1,.33.77c.22.57.5,1.31.85,2.25s.8,2.18,1.21,3.6,1,3,1.37,4.85l.69,2.85c.24,1,.41,2,.62,3.12.47,2.15.75,4.48,1.09,6.93a112.84,112.84,0,0,1,.67,16.05,110.16,110.16,0,0,1-1.82,16c-.51,2.42-1,4.72-1.58,6.84-.29,1.06-.53,2.09-.84,3.06l-.9,2.79c-.54,1.79-1.19,3.35-1.71,4.74s-1,2.57-1.47,3.52l-1,2.18a4.09,4.09,0,0,1-.39.74,4.44,4.44,0,0,1,.28-.79c.23-.56.52-1.3.9-2.23s.89-2.13,1.36-3.54,1.12-3,1.63-4.75c.27-.89.56-1.82.86-2.79s.52-2,.8-3.06c.59-2.11,1-4.4,1.52-6.81a116.92,116.92,0,0,0,1.76-15.89,116.67,116.67,0,0,0-.62-16c-.33-2.43-.59-4.75-1-6.9-.2-1.07-.36-2.12-.58-3.11l-.66-2.84c-.38-1.83-.89-3.43-1.28-4.86s-.77-2.64-1.11-3.63-.55-1.7-.73-2.28A5.08,5.08,0,0,1,100.06,327Z"/><path class="cls-2" d="M142.28,311a1.1,1.1,0,0,1,0,.27c0,.22-.08.47-.13.79-.12.69-.28,1.71-.55,3-.55,2.61-1.45,6.36-2.86,10.91s-3.33,9.89-5.62,15.75-4.91,12.25-7.42,19.05-4.5,13.42-6.33,19.44-3.56,11.42-5.23,15.88a102.08,102.08,0,0,1-4.45,10.36c-.58,1.2-1.1,2.09-1.43,2.71-.16.28-.29.5-.39.69a1.14,1.14,0,0,1-.16.23,1.16,1.16,0,0,1,.1-.26c.09-.19.21-.43.34-.72.3-.63.79-1.54,1.33-2.75,1.13-2.41,2.66-5.94,4.26-10.41s3.3-9.87,5.09-15.89,3.76-12.67,6.31-19.48,5.16-13.2,7.47-19,4.27-11.16,5.72-15.68,2.42-8.24,3-10.82c.31-1.3.5-2.31.66-3,.08-.31.14-.57.19-.78A.91.91,0,0,1,142.28,311Z"/><path class="cls-8" d="M55.36,297.63a2.43,2.43,0,0,0-4,2.48,70,70,0,0,0,3.55,9.1c3.87,8.24,15.25,37.79,20.58,54s12.84,46.51,12.84,46.51l11.38-1.85S89.3,358.14,79.13,340.22C71,325.81,62.78,305,55.36,297.63Z"/><path class="cls-2" d="M78.61,373.37a7.66,7.66,0,0,1,.58,1.37c.34.89.8,2.19,1.32,3.82,1,3.24,2.33,7.78,3.62,12.81s2.36,9.63,3.11,12.95c.34,1.57.63,2.89.86,3.94a7.74,7.74,0,0,1,.23,1.47,7.13,7.13,0,0,1-.46-1.41c-.28-1-.63-2.35-1-3.9-.88-3.42-2-7.92-3.29-12.9S81,382,80.1,378.68L79,374.81A6.73,6.73,0,0,1,78.61,373.37Z"/><path class="cls-2" d="M94.05,408.8a.94.94,0,0,1-.07-.3c0-.24-.07-.53-.13-.9-.12-.78-.22-2-.46-3.44-.42-3-1.17-7.3-2.39-12.55a180.69,180.69,0,0,0-5.32-18.18c-2.34-6.74-5.27-14-8.58-21.57-6.7-15.05-13.38-28.41-17.78-38.29-2.22-4.92-3.94-8.95-5.07-11.75-.58-1.4-1-2.49-1.28-3.24-.13-.34-.23-.62-.32-.84a1.26,1.26,0,0,1-.09-.3,1.41,1.41,0,0,1,.15.27l.37.83c.34.77.8,1.84,1.38,3.19,1.2,2.77,3,6.77,5.25,11.67,4.49,9.82,11.23,23.14,17.94,38.22,3.32,7.55,6.24,14.86,8.55,21.63a171.34,171.34,0,0,1,5.22,18.26c1.17,5.28,1.85,9.61,2.2,12.62.2,1.5.27,2.67.35,3.46,0,.37,0,.67.07.9A1,1,0,0,1,94.05,408.8Z"/><path class="cls-2" d="M99.71,407.88a12,12,0,0,1-.39-1.91c-.22-1.34-.52-3.1-.88-5.23-.78-4.41-2-10.48-3.7-17.09s-3.63-12.5-5.1-16.73c-.73-2-1.33-3.72-1.78-5a11.35,11.35,0,0,1-.61-1.85,12.37,12.37,0,0,1,.82,1.77c.49,1.15,1.18,2.84,2,4.94a166.18,166.18,0,0,1,5.28,16.72,173.11,173.11,0,0,1,3.54,17.17c.32,2.22.57,4,.7,5.27A13.14,13.14,0,0,1,99.71,407.88Z"/><rect class="cls-7" x="78.65" y="406.25" width="44.41" height="54.11"/><polygon class="cls-9" points="382.63 285.86 359.27 282.47 312.56 289.38 299.45 294.02 301.78 322.68 346.69 330.95 376.99 321.97 388.45 305.12 382.63 285.86"/><path class="cls-7" d="M397.34,288.6,377.8,284S364,326.7,329.89,324.87c-27.79-1.5-28.11-32.52-28.11-32.52l-20,6.41s-7.66,51.37.82,87.77c2,8.5,4.63,20,4.63,20l-2.7,53.18,148.12.24L397.34,288.6Z"/><g class="cls-10"><path d="M339.28,449.35c7.21-.18,13.86.43,21.07.25,8.65-.21,17.36-.42,25.9,1,6.4,1.06,12.62,3,19,4,8.73,1.38,18.06.89,25.83-3.32L429.86,444l-29.52-7.11Z"/></g><path class="cls-7" d="M265,310.73c6.77-8.75,18-12.39,18-12.39l7.57,66-14.35,96.06-47-.22S255.21,323.41,265,310.73Z"/><path class="cls-7" d="M395.06,288.11s31.64,2.54,43,54.37c5.13,23.45,11.62,50.93,13.49,69.39,1.36,13.4-5.92,34.37-19.27,36.08l-16.79,2.26a27.63,27.63,0,0,1-9.89-.37c-10.6-2.43-11.68-9.71-13.55-17.44l-4.9-15.47c-2.68-14.71,11-17.45,18.59-17.29l-5.64-67.15Z"/><path class="cls-2" d="M279.15,335a3.4,3.4,0,0,0-.14.72c-.08.53-.19,1.22-.32,2.09-.07.46-.14,1-.22,1.51s-.12,1.16-.18,1.81c-.13,1.3-.29,2.77-.36,4.42a108.33,108.33,0,0,0-.08,11.53c.19,4.33.68,9.09,1.4,14s1.64,9.65,2.57,13.89,1.85,8,2.63,11.21,1.48,5.75,2,7.52c.24.84.42,1.52.57,2a3,3,0,0,0,.23.7,5.46,5.46,0,0,0-.13-.72l-.48-2.06-1.8-7.55c-.74-3.19-1.64-7-2.52-11.23s-1.8-8.92-2.53-13.86-1.22-9.67-1.43-14-.23-8.22,0-11.49c0-1.63.18-3.11.28-4.4.05-.65.1-1.25.14-1.81s.12-1.06.18-1.51c.09-.88.16-1.58.22-2.1A4.11,4.11,0,0,0,279.15,335Z"/><path class="cls-2" d="M430.55,417.81a5.6,5.6,0,0,0-.25-1.31,21.45,21.45,0,0,0-1.22-3.41,23.24,23.24,0,0,0-18.57-13.51,21.75,21.75,0,0,0-3.62-.12,5.81,5.81,0,0,0-1.32.17,46.32,46.32,0,0,1,4.89.3,24,24,0,0,1,18.3,13.32A48.25,48.25,0,0,1,430.55,417.81Z"/><path class="cls-2" d="M423.24,392s-.27-.06-.77-.08a15.56,15.56,0,0,0-2.08.1,24,24,0,0,0-12.6,5.18,16.55,16.55,0,0,0-1.55,1.4c-.34.36-.52.56-.49.59s.85-.68,2.26-1.71a28.53,28.53,0,0,1,5.9-3.31,28.15,28.15,0,0,1,6.52-1.8C422.16,392.11,423.24,392.07,423.24,392Z"/><path class="cls-2" d="M390.49,324.87a7.82,7.82,0,0,0,.07-1.39c0-.89.06-2.18.17-3.76A60.64,60.64,0,0,1,397.39,296c.73-1.41,1.36-2.53,1.82-3.3a6.53,6.53,0,0,0,.65-1.22,8,8,0,0,0-.82,1.12,37.71,37.71,0,0,0-2,3.24,54.53,54.53,0,0,0-6.71,23.88c-.06,1.59-.06,2.89,0,3.78A6.57,6.57,0,0,0,390.49,324.87Z"/><path class="cls-2" d="M329.89,371.93a2.06,2.06,0,0,0,.14.54c.12.35.26.88.53,1.53a31.44,31.44,0,0,0,2.63,5.33,34,34,0,0,0,5.53,6.88,34.19,34.19,0,0,0,28.06,9.25,31,31,0,0,0,5.81-1.28c.67-.19,1.17-.42,1.52-.54a3.09,3.09,0,0,0,.51-.23c0-.05-.75.21-2.09.58a34.44,34.44,0,0,1-5.79,1.11,35.16,35.16,0,0,1-36-21.17C330.19,372.64,329.93,371.91,329.89,371.93Z"/><path class="cls-2" d="M396.57,444.85c.05,0,.55.66,1.73,1.63a15.74,15.74,0,0,0,5.79,2.77,31.08,31.08,0,0,0,9.53.84c3.61-.26,7.6-.69,11.74-1.3a60.9,60.9,0,0,0,11.46-2.64,14.58,14.58,0,0,0,4.21-2.82,22.23,22.23,0,0,0,3-3.34,32.2,32.2,0,0,0,3.23-5.61c.3-.71.54-1.26.68-1.64a3.51,3.51,0,0,1,.25-.56,2.33,2.33,0,0,1-.15.6c-.11.39-.32,1-.6,1.67a28.56,28.56,0,0,1-3.12,5.75,22.56,22.56,0,0,1-2.95,3.44,14.85,14.85,0,0,1-4.31,2.94,58.76,58.76,0,0,1-11.57,2.71c-4.17.62-8.15,1-11.8,1.26a30.44,30.44,0,0,1-9.65-.95,15.46,15.46,0,0,1-5.82-3,10.32,10.32,0,0,1-1.23-1.29A2.39,2.39,0,0,1,396.57,444.85Z"/><path class="cls-2" d="M391.35,341.39c.13,0,3.47,12.92,7.45,28.92s7.09,29,7,29.05-3.48-12.91-7.46-28.92S391.21,341.42,391.35,341.39Z"/><path class="cls-2" d="M387.32,414.48a3.48,3.48,0,0,1-.16-1.06,17.33,17.33,0,0,1-.07-2.94,8.55,8.55,0,0,1,1.42-4.15,12.15,12.15,0,0,1,1.63-2,11.07,11.07,0,0,1,2.24-1.67,28.23,28.23,0,0,1,9.21-3,27.6,27.6,0,0,1,2.93-.26,3.9,3.9,0,0,1,1.07,0c0,.09-1.52.14-3.94.58a30.94,30.94,0,0,0-9,3.05,11.38,11.38,0,0,0-2.16,1.59,13.43,13.43,0,0,0-1.58,1.94,8.56,8.56,0,0,0-1.45,3.93,27,27,0,0,0-.1,2.9A5,5,0,0,1,387.32,414.48Z"/><g class="cls-10"><path d="M280.61,378.54c-8.07-13.67-8.25-31.43-1.21-45.66a127.76,127.76,0,0,0,1.45,45.6"/></g><path class="cls-9" d="M323.33,412.67l.06,0Z"/><path class="cls-9" d="M323.68,412.83l.13.06Z"/><path class="cls-9" d="M323.39,412.7l.29.13Z"/><path class="cls-9" d="M323.21,412.61l.12.06Z"/><path class="cls-9" d="M293.49,439.91c2.54-4.81,22.39-17.48,22.39-17.48l-5.38-1.24-5.93,2.51a14.58,14.58,0,0,1-2.55,5.56c-2.18,3.11-5.89-.11-5.89-.11l2.51-12,11.74-7.07s11,1.69,12.83,2.54l4.7,4.31c2.07,1.62,8,8,9.67,8.2s52.86-11.34,52.86-11.34h0c7,5.57,10.73,16.62,11.85,24.59,0,0,1.25,3.92-.11,6l-62.9,4.94L326,453A93.21,93.21,0,0,1,315,456.79c-4.43.94-7.42-.49-7.54-3s3.32-2.72,3.32-2.72a67.29,67.29,0,0,0,8.57-3.77,15.08,15.08,0,0,0,4.84-5.31l-4.76.57s-10.1,7-13.89,9.07-4.55-1.72-4.86-2.87S312,436.26,312,436.26,301,443.1,299,444.82s-4.95,2.24-5.58,1.08S291,444.71,293.49,439.91Z"/><path class="cls-9" d="M323.81,412.89l.11.06Z"/><path class="cls-9" d="M324,413Z"/><path class="cls-9" d="M323.92,413l.06,0Z"/><path class="cls-11" d="M348.15,441a2.72,2.72,0,0,0,.06-.78,5.34,5.34,0,0,0-.06-.92,7.6,7.6,0,0,0-.22-1.19,16.9,16.9,0,0,0-3.22-6.21,36.49,36.49,0,0,0-4.85-5,14.15,14.15,0,0,0-2.28-1.77,22.08,22.08,0,0,0,2.06,2,47.64,47.64,0,0,1,4.7,5.08,18.51,18.51,0,0,1,3.27,6C348.1,439.9,348.05,441,348.15,441Z"/><path class="cls-11" d="M316.34,422.06a7.37,7.37,0,0,0,6.27-2.11c-.09-.11-1.3.79-3,1.36S316.34,421.92,316.34,422.06Z"/><path class="cls-11" d="M313,435.21a30.26,30.26,0,0,0,5-1.82,31.33,31.33,0,0,0,4.88-2.26,31.18,31.18,0,0,0-5.06,1.83A30.4,30.4,0,0,0,313,435.21Z"/><path class="cls-11" d="M323.68,441.93a39.91,39.91,0,0,0,5.12-2,6.5,6.5,0,0,0-2.7.65A6.64,6.64,0,0,0,323.68,441.93Z"/><path class="cls-11" d="M314.67,436.09a6.47,6.47,0,0,1,3.09,4.06c.06,0,.11-.32,0-.82a4.13,4.13,0,0,0-.8-1.81,4.2,4.2,0,0,0-1.53-1.25C315,436.06,314.69,436,314.67,436.09Z"/><path class="cls-11" d="M310,428.75c-.06.12.81.59,1.38,1.6a11.22,11.22,0,0,1,.71,2,2.36,2.36,0,0,0-.31-2.23C311.13,429,310,428.62,310,428.75Z"/><path class="cls-11" d="M311.59,415.63c.05,0,.23-.19.37-.62a3.37,3.37,0,0,0,0-1.75,3.25,3.25,0,0,0-.83-1.54c-.32-.32-.59-.43-.62-.39a8.89,8.89,0,0,1,1,2A9.13,9.13,0,0,1,311.59,415.63Z"/><path class="cls-2" d="M402.73,446.21a8.66,8.66,0,0,1-.08-1.44c0-.47,0-1-.07-1.69s-.06-1.41-.15-2.23a50.27,50.27,0,0,0-2.75-12.61,45,45,0,0,0-3-6.45c-.58-.93-1.08-1.84-1.66-2.62l-.81-1.15-.81-1c-2.09-2.57-3.69-3.88-3.61-4a7.29,7.29,0,0,1,1.13.91,12.38,12.38,0,0,1,1.23,1.16,22,22,0,0,1,1.53,1.67l.84,1c.28.36.55.75.84,1.15.6.78,1.13,1.69,1.72,2.63a42.79,42.79,0,0,1,3.06,6.51,46,46,0,0,1,2.62,12.75c.08.83.07,1.59.08,2.25a15.39,15.39,0,0,1,0,1.7A6.64,6.64,0,0,1,402.73,446.21Z"/><g class="cls-10"><path d="M424.32,401.27a31.7,31.7,0,0,0-18.64-1.7h0a25.79,25.79,0,0,1,25.15,16.27c.45,1.21,1.35,2.63,2.62,2.44s1.64-1.66,1.64-2.87C435.09,409.13,430.11,403.69,424.32,401.27Z"/></g><path class="cls-6" d="M278.77,330.57a2.77,2.77,0,0,1-.84-.28c-.53-.21-1.28-.55-2.19-1A46.48,46.48,0,0,1,263,319.87c-.7-.74-1.25-1.35-1.6-1.8s-.55-.7-.52-.72.91.87,2.37,2.27A59.12,59.12,0,0,0,275.91,329C277.68,330,278.8,330.5,278.77,330.57Z"/><path class="cls-6" d="M390.94,334.24l-.24.16-.75.45c-.65.4-1.64.94-2.92,1.62a82.1,82.1,0,0,1-11.33,4.76A108,108,0,0,1,358,345.49a170.91,170.91,0,0,1-22.23,1.84c-7.92.19-15.46,0-22.31-.11a149.48,149.48,0,0,1-18.17-1.37,71,71,0,0,1-12-2.78c-1.37-.47-2.43-.86-3.13-1.16l-.8-.33-.27-.13a.85.85,0,0,1,.29.08l.82.28c.71.28,1.77.64,3.15,1.07a76.21,76.21,0,0,0,12,2.62,155,155,0,0,0,18.13,1.25c6.85.13,14.38.27,22.28.08a175.66,175.66,0,0,0,22.18-1.8,110.92,110.92,0,0,0,17.67-4.14,88.23,88.23,0,0,0,11.35-4.6c1.29-.65,2.29-1.16,3-1.53l.77-.4A1.17,1.17,0,0,1,390.94,334.24Z"/><path class="cls-6" d="M279.11,368.83a5.9,5.9,0,0,1-1.2-.26l-3.24-.88c-2.72-.77-6.47-1.86-10.61-3.1s-7.87-2.39-10.57-3.24l-3.19-1a5.9,5.9,0,0,1-1.15-.44,5.5,5.5,0,0,1,1.21.25l3.23.89c2.73.76,6.48,1.86,10.62,3.1s7.87,2.38,10.57,3.23l3.18,1A5.46,5.46,0,0,1,279.11,368.83Z"/><path class="cls-6" d="M281.94,422.57c0,.13-9.74-2.65-21.67-6.22s-21.56-6.57-21.52-6.7,9.74,2.65,21.67,6.21S282,422.43,281.94,422.57Z"/><path class="cls-6" d="M422.38,306.38a7.25,7.25,0,0,1-1.07.84c-.7.52-1.75,1.24-3.06,2.09a104.31,104.31,0,0,1-10.66,6,105.82,105.82,0,0,1-11.29,4.74c-1.48.52-2.69.91-3.53,1.15a7.85,7.85,0,0,1-1.32.33,6.3,6.3,0,0,1,1.26-.52l3.47-1.3c2.92-1.11,6.91-2.76,11.19-4.86s8-4.25,10.69-5.88l3.14-1.95A6.47,6.47,0,0,1,422.38,306.38Z"/><path class="cls-6" d="M441.74,361.58a10.43,10.43,0,0,1-1.58.75c-1,.46-2.54,1.07-4.42,1.76a103.15,103.15,0,0,1-30.69,6.1c-2,.08-3.63.1-4.76.07a12.66,12.66,0,0,1-1.74-.08,9.69,9.69,0,0,1,1.74-.11c1.12,0,2.74-.11,4.74-.24a119.32,119.32,0,0,0,15.5-2,120.52,120.52,0,0,0,15.09-4.07c1.9-.65,3.42-1.2,4.47-1.6A13,13,0,0,1,441.74,361.58Z"/><path class="cls-6" d="M413.76,449.9a2.06,2.06,0,0,1,.05-.55q.09-.6.24-1.53c.11-.66.25-1.47.34-2.42s.26-2,.3-3.23c0-.6.08-1.22.12-1.88s0-1.33,0-2c0-1.41-.06-2.91-.14-4.5a60.79,60.79,0,0,0-4.82-20c-.66-1.44-1.25-2.83-1.94-4.07-.33-.62-.62-1.24-.95-1.8l-1-1.62c-.59-1.05-1.23-1.93-1.75-2.73s-1-1.47-1.41-2l-.91-1.25a2.68,2.68,0,0,1-.29-.46,2.21,2.21,0,0,1,.37.39l1,1.2a22.46,22.46,0,0,1,1.48,2c.55.79,1.21,1.66,1.82,2.7l1,1.62c.34.56.64,1.17,1,1.8.7,1.23,1.31,2.62,2,4.07a64.54,64.54,0,0,1,3.32,9.85,63.8,63.8,0,0,1,1.54,10.27c.06,1.6.15,3.11.08,4.54,0,.71,0,1.39-.05,2.05s-.1,1.29-.15,1.89c-.07,1.21-.26,2.28-.38,3.23a23.85,23.85,0,0,1-.43,2.42c-.14.62-.25,1.12-.33,1.52A4.21,4.21,0,0,1,413.76,449.9Z"/><path class="cls-6" d="M451.3,420.11c-.06,0-.08-.79-.3-2.19a19,19,0,0,0-1.91-5.66,24,24,0,0,0-5.49-6.92,28.81,28.81,0,0,0-9.34-5.46A36.53,36.53,0,0,0,423.57,398a69.63,69.63,0,0,0-8.93.34c-2.54.24-4.59.49-6,.65l-1.64.18a2.24,2.24,0,0,1-.57,0,2.92,2.92,0,0,1,.56-.12l1.62-.27c1.41-.22,3.45-.53,6-.82a65.3,65.3,0,0,1,9-.44,36.4,36.4,0,0,1,10.85,1.87,28.81,28.81,0,0,1,9.48,5.59,23.73,23.73,0,0,1,5.5,7.11,18.21,18.21,0,0,1,1.78,5.79,11.77,11.77,0,0,1,.12,1.65A3.13,3.13,0,0,1,451.3,420.11Z"/><path class="cls-6" d="M346.76,392l-.55.09-1.58.16-5.83.49c-4.93.38-11.73.84-19.26,1.24s-14.35.63-19.29.68c-2.47,0-4.47,0-5.85,0l-1.59-.05a1.88,1.88,0,0,1-.56-.05,2.55,2.55,0,0,1,.56,0l1.59,0,5.84-.15c4.94-.14,11.75-.43,19.27-.83l19.26-1.09,5.84-.33,1.59-.06A2.17,2.17,0,0,1,346.76,392Z"/><g class="cls-10"><path d="M352.41,394c6.12,1.8,14.6,2.24,20.57,0-4.67,6.63-13.68,9-21.49,6.87s-15-10-15.63-18.06C339.65,387.92,346.28,392.2,352.41,394Z"/></g><path class="cls-6" d="M402.05,387.6a2.22,2.22,0,0,1-.49.14l-1.41.3c-1.23.25-3,.58-5.23,1-4.42.78-10.55,1.73-17.35,2.56s-13,1.38-17.46,1.69c-2.24.16-4.05.27-5.3.32l-1.45.05a1.91,1.91,0,0,1-.5,0,1.56,1.56,0,0,1,.5-.08l1.43-.15,5.29-.47c4.47-.4,10.64-1,17.43-1.84s12.92-1.73,17.35-2.41l5.25-.82,1.43-.2A1.52,1.52,0,0,1,402.05,387.6Z"/><g class="cls-10"><path d="M391.86,344.34c-1.53,17.58,3.26,35,8,52.05a7.34,7.34,0,0,0,1.31,2.93,2.51,2.51,0,0,0,2.89.8c1.48-.75,1.29-2.89.87-4.5q-6.62-25.28-13.21-50.56"/></g><path class="cls-1" d="M145.83,361.86l20,98.05H339.15a3.46,3.46,0,0,0,3.46-3.47h0a3.46,3.46,0,0,0-3.46-3.46h-34.9L285.74,361.8a3.79,3.79,0,0,0-3.67-3l-132.49-1.45A3.79,3.79,0,0,0,145.83,361.86Z"/><path class="cls-2" d="M145.83,361.86s0-.1-.05-.29a3.48,3.48,0,0,1,0-.89,3.83,3.83,0,0,1,1.83-2.87,4.18,4.18,0,0,1,1.15-.45,6.06,6.06,0,0,1,1.36-.09l3.12,0,7.8.06,50.1.48,34.92.35,19.56.2,10.26.1,5.25.06c.44,0,.86,0,1.34,0a4,4,0,0,1,3.24,2.38,5.68,5.68,0,0,1,.36,1.34l.27,1.31.54,2.65c.36,1.78.72,3.56,1.09,5.36l2.22,10.9q2.25,11,4.59,22.58c3.12,15.37,6.38,31.36,9.72,47.83l-.23-.19h34.32a6.27,6.27,0,0,1,1.35.08,3.72,3.72,0,0,1,2.27,1.52,3.64,3.64,0,0,1,.61,2.66,3.68,3.68,0,0,1-3.52,3.14H247.19l-81.39,0h-.15l0-.15c-6.1-30.13-11.07-54.65-14.51-71.64-1.71-8.48-3-15.09-3.94-19.58-.44-2.24-.78-4-1-5.11s-.33-1.75-.33-1.75.14.59.38,1.74.6,2.86,1.07,5.1c.92,4.48,2.29,11.08,4,19.56L166,459.87l-.18-.15,81.39,0h92.07a3.3,3.3,0,0,0,1.42-.38,3.22,3.22,0,0,0-.86-6,5.65,5.65,0,0,0-1.25-.07H304.06l0-.19c-3.34-16.48-6.59-32.47-9.71-47.84q-2.32-11.54-4.57-22.58-1.12-5.52-2.21-10.91c-.37-1.79-.73-3.58-1.09-5.35l-.54-2.65-.26-1.32a5.61,5.61,0,0,0-.34-1.25,3.61,3.61,0,0,0-1.7-1.79,3.52,3.52,0,0,0-1.2-.34c-.4,0-.87,0-1.3,0l-5.24-.07-10.27-.11L246,358.56l-34.92-.41L161,357.53l-7.8-.1-3.12-.05a5.84,5.84,0,0,0-1.34.07,3.85,3.85,0,0,0-1.12.44,3.8,3.8,0,0,0-1.84,2.79A5.88,5.88,0,0,0,145.83,361.86Z"/><path class="cls-6" d="M225.71,406.73A5.73,5.73,0,1,1,220,401,5.73,5.73,0,0,1,225.71,406.73Z"/><path class="cls-2" d="M146,362.66s.21,0,.6,0h8.49l24.79.12,81.77.57,11.83.1,2.9,0a7.64,7.64,0,0,1,1.49.09,4.18,4.18,0,0,1,1.4.57A4.12,4.12,0,0,1,281,366.5c.22,1,.38,1.86.57,2.79,1.46,7.39,2.88,14.51,4.22,21.3,2.69,13.57,5.1,25.79,7.13,36.06L297.71,451c.55,2.86,1,5.08,1.27,6.61.14.75.24,1.32.32,1.73s.09.59.09.59l-.14-.58-.37-1.72c-.31-1.52-.77-3.74-1.36-6.6-1.16-5.75-2.84-14-4.91-24.29s-4.51-22.48-7.23-36.05c-1.35-6.78-2.78-13.9-4.25-21.29-.19-.91-.36-1.87-.56-2.76a3.64,3.64,0,0,0-1.56-2.11,3.77,3.77,0,0,0-1.25-.5,6.94,6.94,0,0,0-1.39-.08l-2.91,0-11.82-.09-81.77-.72-24.79-.27-6.74-.1-1.75,0Z"/><path class="cls-2" d="M377.49,213.75A64.17,64.17,0,0,1,357,262.21l-9.16-26.52"/><path class="cls-2" d="M308.47,161c7.86-4.29,17.35-4.91,26.13-3.15s17,5.73,24.72,10.22c4.35,2.51,8.69,5.28,11.82,9.21,5.7,7.18,11.34,19,11.9,28.13.44,7.4-2.39,25.94-5.52,32.66-2.87,6.17-16.31,10.87-22.95,12.39l-60.86-70.78A30.78,30.78,0,0,1,308.47,161Z"/><path class="cls-2" d="M298,170.54l14.59-2.61c-8,19-10.14,62.43-14.7,82.52-5.38-7.8-17.87-31.57-17.2-41S280.64,168.93,298,170.54Z"/><path class="cls-9" d="M367.15,202.16c-.78-11.1-8-20.2-18.75-22.95l-33.6-8.57c-14.52-1.57-24.22,16.29-25.17,30.87-1.05,16.19-1.7,33.28.19,45.36,3.8,24.31,22.42,27.44,22.42,27.44s0,11.56,0,18.66l11.25,46.55,36.24-50,7.5-87C367.25,202,367.19,202.71,367.15,202.16Z"/><path class="cls-2" d="M296.93,219.86a3.13,3.13,0,0,0,3,3.16,3,3,0,0,0,3.22-2.81,3.12,3.12,0,0,0-3-3.15A3,3,0,0,0,296.93,219.86Z"/><path class="cls-2" d="M293.28,211c.38.4,2.75-1.34,6.1-1.32s5.81,1.7,6.18,1.29c.17-.18-.22-.92-1.29-1.7a8.57,8.57,0,0,0-4.94-1.54,8.23,8.23,0,0,0-4.85,1.56C293.44,210.11,293.09,210.84,293.28,211Z"/><path class="cls-2" d="M326.16,219.87a3.12,3.12,0,0,0,3,3.15,3,3,0,0,0,3.22-2.81,3.12,3.12,0,0,0-3-3.15A3,3,0,0,0,326.16,219.87Z"/><path class="cls-2" d="M325.13,211c.38.4,2.75-1.34,6.1-1.32s5.81,1.7,6.17,1.29c.18-.18-.21-.92-1.28-1.7a8.59,8.59,0,0,0-4.94-1.54,8.26,8.26,0,0,0-4.86,1.56C325.29,210.11,324.94,210.84,325.13,211Z"/><path class="cls-2" d="M314.64,237.36c0-.19-2.07-.55-5.44-1-.86-.09-1.67-.27-1.81-.85A4.36,4.36,0,0,1,308,233c.81-2.07,1.65-4.24,2.54-6.51,3.54-9.28,6.1-16.9,5.73-17s-3.55,7.26-7.09,16.54q-1.27,3.43-2.44,6.55a5,5,0,0,0-.45,3.36,2.17,2.17,0,0,0,1.41,1.26,5.45,5.45,0,0,0,1.45.2C312.52,237.53,314.63,237.55,314.64,237.36Z"/><path class="cls-11" d="M344.47,265.67s-7.91,16.69-32.23,14.36v-5.72A61.16,61.16,0,0,0,344.47,265.67Z"/><path class="cls-2" d="M326.18,198.91c.33.91,3.68.49,7.61,1s7.11,1.56,7.64.75c.23-.39-.32-1.25-1.6-2.14a13.4,13.4,0,0,0-11.62-1.31C326.77,197.76,326,198.48,326.18,198.91Z"/><path class="cls-2" d="M294.37,200.77c.59.76,2.9,0,5.68-.05s5.13.52,5.67-.28c.24-.38-.13-1.15-1.15-1.87a8.23,8.23,0,0,0-9.15.26C294.44,199.61,294.11,200.4,294.37,200.77Z"/><path class="cls-2" d="M296.23,179.31c1.49-3.65,5.5-5.85,9.44-6.05s7.79,1.29,11.21,3.27c14.47,8.36,21.91,28.57,36.21,37.22,3.51,2.13,8.09.18,11.08,3s4.93,7.33,3.28,11.09a34.1,34.1,0,0,0,5-8.39c1.09-3.07,1.23-6.65-.4-9.47-1.24-2.15-3.42-3.78-4-6.18-.53-2.12.3-4.33.21-6.5a14,14,0,0,0-2.23-6.2c-5.6-9.9-13.3-18.86-23.22-24.44a41.15,41.15,0,0,0-21.33-5.51,31.44,31.44,0,0,0-20.29,8c-3.19,3-6.56,6.07-4.9,10.11"/><path class="cls-9" d="M363.82,219.76c.26-.7,12.93-5.27,13.1,8.2.17,13.09-13,10.51-13.07,10.14S363.82,219.76,363.82,219.76Z"/><path class="cls-11" d="M367.84,233.1c.06,0,.23.16.62.33a2.27,2.27,0,0,0,1.7,0c1.38-.52,2.53-2.72,2.57-5.08a7.57,7.57,0,0,0-.67-3.26,2.63,2.63,0,0,0-1.73-1.73A1.14,1.14,0,0,0,369,224c-.17.37-.09.63-.16.65s-.28-.21-.18-.75a1.4,1.4,0,0,1,.51-.83,1.69,1.69,0,0,1,1.25-.34,3.21,3.21,0,0,1,2.41,2,7.93,7.93,0,0,1,.82,3.64c-.06,2.64-1.39,5.12-3.27,5.69a2.42,2.42,0,0,1-2.09-.33C367.87,233.42,367.8,233.13,367.84,233.1Z"/><path class="cls-8" d="M369,213a7.56,7.56,0,0,1-.79-.44c-.5-.32-1.27-.75-2.2-1.4a45.49,45.49,0,0,1-7.06-6.43,125.37,125.37,0,0,1-8.64-11.23,103.48,103.48,0,0,0-10.8-13.45,41.46,41.46,0,0,0-7-5.5,34.07,34.07,0,0,0-7.53-3.42,37.18,37.18,0,0,0-13.87-1.7,35.59,35.59,0,0,0-9.28,1.82c-1.08.33-1.87.69-2.43.9a5.57,5.57,0,0,1-.85.3,4.94,4.94,0,0,1,.8-.41,21.2,21.2,0,0,1,2.4-1,34.11,34.11,0,0,1,9.33-2,37,37,0,0,1,14.06,1.6,33.58,33.58,0,0,1,7.67,3.44,41.1,41.1,0,0,1,7.09,5.58,100.74,100.74,0,0,1,10.83,13.56,135.36,135.36,0,0,0,8.5,11.26,48.5,48.5,0,0,0,6.89,6.52c.9.68,1.64,1.13,2.12,1.48A4.71,4.71,0,0,1,369,213Z"/><path class="cls-6" d="M369.33,235.42a2.56,2.56,0,1,1-.61.19"/><path class="cls-2" d="M368.72,235.61a3.59,3.59,0,0,0-1.18,1.76,2.22,2.22,0,0,0,.52,2,2.29,2.29,0,0,0,4-1.28,2.23,2.23,0,0,0-.77-2,3.41,3.41,0,0,0-2-.75s.2-.14.62-.15a2.73,2.73,0,0,1,1.63.57,2.64,2.64,0,0,1,1.05,2.36,2.82,2.82,0,0,1-5,1.59,2.74,2.74,0,0,1,.5-3.94C368.48,235.62,368.71,235.58,368.72,235.61Z"/><path class="cls-2" d="M365.74,216.74c.2,3.57.37,7.35-1.28,10.52s-5.82,5.34-8.93,3.57c-2.53-1.45-3.29-4.7-3.72-7.59-1.24-8.34-1.81-16.76-3.12-25.09Z"/><path class="cls-8" d="M299.46,173.09c0,.07,1.15-.22,3.25-.29a22.41,22.41,0,0,1,8.66,1.59,28.62,28.62,0,0,1,5.43,2.79,58.77,58.77,0,0,1,5.59,4.28,66.6,66.6,0,0,1,11,11.81c1.67,2.34,3.14,4.74,4.73,7a33.35,33.35,0,0,0,5.25,5.9,59.14,59.14,0,0,0,11.06,7.4c3.35,1.77,6.15,3,8.08,3.86l2.24,1a3,3,0,0,0,.8.28,4.25,4.25,0,0,0-.74-.42l-2.18-1.08c-1.89-.93-4.65-2.24-7.95-4.06a60.09,60.09,0,0,1-10.86-7.45,32.9,32.9,0,0,1-5.11-5.81c-1.57-2.2-3-4.6-4.72-7a65.84,65.84,0,0,0-11.12-11.9,57.1,57.1,0,0,0-5.7-4.27,28.34,28.34,0,0,0-5.58-2.77,21.47,21.47,0,0,0-8.85-1.38,14.6,14.6,0,0,0-2.42.34A2.84,2.84,0,0,0,299.46,173.09Z"/><path class="cls-8" d="M366.1,208.66a6.62,6.62,0,0,0,1.16.78l3.31,1.94,1.12.64a3.51,3.51,0,0,0,1.43.48,1.43,1.43,0,0,0,.89-.21,1.19,1.19,0,0,0,.49-.87,3,3,0,0,0-.62-1.65L370,203.61l-.52.48a13.69,13.69,0,0,0,8.89,2.65,3.86,3.86,0,0,0,1.19-.2,1.6,1.6,0,0,0,1-.89,1.38,1.38,0,0,0-.22-1.32,5.47,5.47,0,0,0-.74-.82,27.55,27.55,0,0,1-4.46-5.62,45.24,45.24,0,0,1-2.83-6,7,7,0,0,0,.41,1.76,24.42,24.42,0,0,0,2,4.53,26.41,26.41,0,0,0,4.43,5.84c.49.47,1,1,.79,1.41s-.9.61-1.59.62a13.27,13.27,0,0,1-8.42-2.51l-1.56-1.14,1,1.62c1.4,2.18,2.72,4.24,3.93,6.11a2.49,2.49,0,0,1,.55,1.28c0,.37-.33.59-.75.56a6.55,6.55,0,0,1-2.35-1l-3.42-1.76A6,6,0,0,0,366.1,208.66Z"/><path class="cls-11" d="M327.4,243.55a4.39,4.39,0,0,0-4.52-3.33,4.54,4.54,0,0,0-3.52,2.51,5.58,5.58,0,0,0-.2,4.37l.07.32a5,5,0,0,0,5.61,1.19A4.68,4.68,0,0,0,327.4,243.55Z"/><path class="cls-2" d="M316.8,247.49c0-.51,3.39-.35,5.94-3.13s2.36-6.41,2.83-6.42c.22,0,.62.84.58,2.37a8.42,8.42,0,0,1-2.17,5.36,7.36,7.36,0,0,1-5,2.41C317.59,248.14,316.77,247.72,316.8,247.49Z"/><path class="cls-6" d="M431,453.43l-.23,0-.68.07-2.59.21c-2.26.18-5.52.41-9.56.64-8.08.48-19.25,1-31.59,1.18s-23.53.08-31.61-.12c-4-.11-7.32-.22-9.58-.32l-2.6-.13-.68-.05c-.15,0-.23,0-.22,0l.23,0h.68l2.6,0,9.58.16c8.08.12,19.25.17,31.59,0s23.5-.64,31.58-1l9.57-.47,2.6-.12.68,0Z"/><g class="cls-10"><rect x="78.65" y="406.25" width="44.41" height="54.11"/></g><rect class="cls-7" x="69.49" y="406.25" width="39.4" height="54.11"/></svg>