<svg id="Layer_1" data-name="Layer 1" xmlns="http://www.w3.org/2000/svg" viewBox="0 0 512 512"><defs><style>.cls-1{fill:#fff;}.cls-2{fill:#0b1213;}.cls-3{fill:#e7eaf6;}.cls-4{fill:#f04935;}.cls-5{fill:#fed402;}.cls-6{fill:#2ab997;}.cls-7{fill:#060707;}.cls-8{fill:#fbc1a5;}.cls-9{fill:#006838;}.cls-10{fill:#4379bd;}.cls-11{fill:#2bb673;}.cls-12{fill:#f7b094;}.cls-13{fill:#b9bcdf;}.cls-14{fill:#6ec49b;}</style></defs><path class="cls-1" d="M377.3,240.1a.72.72,0,0,1-.7-.55l-5.36-20.34a.73.73,0,1,1,1.41-.37L378,239.18a.73.73,0,0,1-.52.89.63.63,0,0,1-.19,0Z"/><path class="cls-2" d="M133.22,475.11a.72.72,0,0,1-.66-.43c-4.6-10.39-12.53-19-20.2-27.4l-1.82-2c-8.31-9.1-16.74-19-20.39-31a.73.73,0,0,1,1.4-.43c3.56,11.76,11.87,21.51,20.06,30.48l1.83,2c7.75,8.44,15.76,17.18,20.45,27.79a.73.73,0,0,1-.37,1,.8.8,0,0,1-.3.06Z"/><path class="cls-2" d="M148.32,476.69a.74.74,0,0,1-.69-.47,32.59,32.59,0,0,1,.1-22.88c2.34-6.08,6.46-11.26,10.44-16.28.93-1.17,1.87-2.34,2.78-3.53,4.21-5.49,9.06-12.82,9.15-20.9a.73.73,0,0,1,.73-.72h0a.73.73,0,0,1,.72.73c-.09,8.52-5.1,16.11-9.46,21.78-.91,1.19-1.85,2.37-2.79,3.55-3.91,4.93-8,10-10.22,15.89a31.13,31.13,0,0,0-.09,21.85.72.72,0,0,1-.43.93.56.56,0,0,1-.25.05Z"/><path class="cls-1" d="M189.38,497.9s3.15-7.87-1.15-10.1-12,0-12,0,6-6.05,4.41-10.94-7.15-7.37-12.92-2.23c0,0,14.22-18.56,9.87-25.59-7.88-12.76-29.1,5.13-31.51,21.41,0,0-6.2-32.84-16.92-32.1s-4.1,22.37-1.79,27.08c0,0-13.34-15.31-22.48-10.26s1.47,34.2,25.74,42.73"/><path class="cls-2" d="M132.82,491.39a.71.71,0,0,1-.56-.27,67.71,67.71,0,0,1-8.78-13.57.73.73,0,0,1,.33-1,.74.74,0,0,1,1,.34,66,66,0,0,0,8.6,13.28.74.74,0,0,1-.1,1,.75.75,0,0,1-.47.17Z"/><path class="cls-2" d="M157.06,491.89a.73.73,0,0,1-.63-1.1l6-10.37a.73.73,0,0,1,1.27.74l-6.06,10.37a.73.73,0,0,1-.63.36Z"/><path class="cls-2" d="M130.65,498.63a.67.67,0,0,1-.24,0C111.77,492,101.84,474,101,463.92c-.38-4.58.89-7.91,3.57-9.39,7.14-3.95,16.38,3.49,20.81,7.76-2-5.82-4.46-16.26-1.44-21.49a6.15,6.15,0,0,1,5.2-3.17c9.24-.65,15.05,20.91,17,29.38,3-10.43,12.75-20.95,21.58-22.77,4.54-.93,8.18.59,10.54,4.41,3.46,5.6-3.7,17.47-7.61,23.21a8,8,0,0,1,5.45-.55,7.86,7.86,0,0,1,5.28,5.33c1.17,3.63-1.34,7.69-3.09,9.94,2.69-.52,7.23-1,10.3.57,4.84,2.51,1.64,10.67,1.5,11a.73.73,0,0,1-.95.41.74.74,0,0,1-.41-.95c0-.07,2.86-7.28-.81-9.19-4-2.07-11.36,0-11.44.06a.73.73,0,0,1-.72-1.22c.06,0,5.66-5.79,4.23-10.19a6.39,6.39,0,0,0-4.28-4.37c-2.32-.63-5,.24-7.46,2.45a.72.72,0,0,1-1,0,.71.71,0,0,1-.08-1c3.87-5.06,13.18-19.35,9.83-24.77-2-3.3-5.07-4.57-9-3.75-9.1,1.87-19.59,14.2-21.18,24.89a.73.73,0,0,1-.7.62.72.72,0,0,1-.73-.59c-1.67-8.85-7.74-31.52-15.85-31.52h-.3a4.7,4.7,0,0,0-4,2.45c-3.26,5.65.77,19.34,2.85,23.59a.73.73,0,0,1-1.21.8c-.13-.15-13.06-14.82-21.58-10.11-2.14,1.18-3.14,4-2.81,8,.81,9.73,10.42,27.09,28.44,33.42a.73.73,0,0,1-.24,1.42Z"/><path class="cls-2" d="M150.44,491.26a.73.73,0,0,1-.73-.72,34.74,34.74,0,0,1,7.21-21.21.72.72,0,0,1,1-.14.73.73,0,0,1,.15,1,33.21,33.21,0,0,0-6.92,20.31.73.73,0,0,1-.73.74Z"/><path class="cls-2" d="M143.75,487.48a.73.73,0,0,1-.67-.44l-8.1-19.3a.71.71,0,0,1,.39-.95.73.73,0,0,1,.95.39l8.11,19.29a.74.74,0,0,1-.39,1,.71.71,0,0,1-.29.05Z"/><path class="cls-3" d="M177.32,410.35a6.5,6.5,0,1,1-6.49-6.49,6.49,6.49,0,0,1,6.49,6.49Z"/><path class="cls-2" d="M170.83,404.59a5.77,5.77,0,1,0,5.77,5.76,5.77,5.77,0,0,0-5.77-5.76Zm0,13a7.23,7.23,0,1,1,7.23-7.23,7.23,7.23,0,0,1-7.23,7.23Z"/><path class="cls-3" d="M97.58,416.85a6.5,6.5,0,1,1-6.5-6.5,6.5,6.5,0,0,1,6.5,6.5Z"/><path class="cls-2" d="M91.08,411.08a5.77,5.77,0,1,0,5.77,5.77,5.78,5.78,0,0,0-5.77-5.77Zm0,13a7.23,7.23,0,1,1,7.23-7.23,7.24,7.24,0,0,1-7.23,7.23Z"/><path class="cls-1" d="M266.56,109.23V337.56a25.18,25.18,0,0,1-25.19,25.18H78.05a25.18,25.18,0,0,1-25.19-25.18V109.23c0-.44,0-.87,0-1.3a25.3,25.3,0,0,1,24-24c.43,0,.87,0,1.3,0H241.27c.44,0,.88,0,1.3,0a25.18,25.18,0,0,1,24,24c0,.43,0,.86,0,1.3Z"/><path class="cls-2" d="M78.14,84.67q-.63,0-1.26,0A24.47,24.47,0,0,0,53.62,108c0,.42,0,.84,0,1.27V337.56A24.48,24.48,0,0,0,78.05,362H241.37a24.48,24.48,0,0,0,24.46-24.46V109.23q0-.65,0-1.26A24.32,24.32,0,0,0,242.54,84.7c-.42,0-.84,0-1.27,0ZM241.37,363.48H78.05a26,26,0,0,1-25.92-25.92V109.23c0-.45,0-.9,0-1.34A25.93,25.93,0,0,1,76.8,83.24c.44,0,.89,0,1.34,0H241.27c.45,0,.9,0,1.34,0a25.79,25.79,0,0,1,24.65,24.65c0,.44,0,.89,0,1.34V337.56a26,26,0,0,1-25.92,25.92Z"/><path class="cls-4" d="M77.49,103.75a5.09,5.09,0,1,1-5.09-5.09,5.09,5.09,0,0,1,5.09,5.09Z"/><path class="cls-2" d="M72.4,99.39a4.36,4.36,0,1,0,4.36,4.36,4.37,4.37,0,0,0-4.36-4.36Zm0,10.18a5.82,5.82,0,1,1,5.82-5.82,5.83,5.83,0,0,1-5.82,5.82Z"/><path class="cls-5" d="M93.07,103.75A5.09,5.09,0,1,1,88,98.66a5.09,5.09,0,0,1,5.09,5.09Z"/><path class="cls-2" d="M88,99.39a4.36,4.36,0,1,0,4.36,4.36A4.36,4.36,0,0,0,88,99.39Zm0,10.18a5.82,5.82,0,1,1,5.82-5.82A5.83,5.83,0,0,1,88,109.57Z"/><path class="cls-6" d="M108.64,103.75a5.09,5.09,0,1,1-5.09-5.09,5.09,5.09,0,0,1,5.09,5.09Z"/><path class="cls-2" d="M103.55,99.39a4.36,4.36,0,1,0,4.36,4.36,4.37,4.37,0,0,0-4.36-4.36Zm0,10.18a5.82,5.82,0,1,1,5.82-5.82,5.83,5.83,0,0,1-5.82,5.82Z"/><path class="cls-7" d="M318.24,117.13a25.6,25.6,0,0,1-3.19,10.41c-2.86,4.72-1.69,11.28,2.25,15.23s10-12.12,10-12.12l-9.08-13.52Z"/><polyline class="cls-8" points="287.34 459.68 290.05 434.93 322.81 440.96 320.42 463.81"/><path class="cls-9" d="M257.8,496.45l58.18-.3a2.53,2.53,0,0,0,2.09-1.14l2.35-31.2-33.08-4.14-4.54,11.55-21.36,16.34-5.66,4.85a2.52,2.52,0,0,0,2,4Z"/><path class="cls-7" d="M319.42,487.12s0,.07,0,.15l0-.15Z"/><path class="cls-7" d="M257.8,496.45l58.18-.3a2.53,2.53,0,0,0,2.09-1.14l.44-5.85-56.37,1.56c-2.1,0-1.9-1.59-.63-3.26l-5.73,5a2.52,2.52,0,0,0,2,4Z"/><path d="M291.88,476.06a.83.83,0,0,1-.34-.07l-9.08-4a.83.83,0,0,1-.42-1.1.84.84,0,0,1,1.1-.43l9.08,4a.83.83,0,0,1,.42,1.1.82.82,0,0,1-.76.49Z"/><path d="M289.28,479.5a.87.87,0,0,1-.35-.07l-8.45-3.87a.84.84,0,0,1,.7-1.52l8.45,3.87A.83.83,0,0,1,290,479a.84.84,0,0,1-.76.49Z"/><path d="M305.21,493.4a.84.84,0,0,1-.79-.57c-.09-.27-2.27-6.82,1.08-11.82,3.76-5.6,11-4.83,13.92-4.24a.83.83,0,0,1,.65,1,.85.85,0,0,1-1,.66c-3.24-.66-9.12-1.06-12.2,3.53-2.89,4.31-.91,10.29-.89,10.35a.83.83,0,0,1-.52,1.06.86.86,0,0,1-.27,0Z"/><polyline class="cls-8" points="387.93 459.68 385.22 434.93 352.46 440.96 354.85 463.81"/><polygon class="cls-10" points="401.38 449.62 382.35 259.43 334.75 258.78 348.74 449.62 401.38 449.62 401.38 449.62"/><polygon points="344.07 295.39 343.98 384.67 339.89 334.87 344.07 295.39 344.07 295.39"/><path class="cls-1" d="M374.31,446.54a.73.73,0,0,1-.73-.67l-10.84-143.2a7,7,0,0,0-13.43-2.33l-4.15,9.55a.73.73,0,0,1-1.34-.59l4.15-9.54a8.47,8.47,0,0,1,16.22,2.81L375,445.76a.73.73,0,0,1-.67.78Z"/><polygon class="cls-10" points="327.74 449.62 347.88 259.43 299.87 254.17 279.34 449.62 327.74 449.62 327.74 449.62"/><polygon points="383.24 268.39 297.83 273.65 298.26 268.39 383.24 268.39 383.24 268.39"/><path class="cls-1" d="M305,437.91h-.06a.72.72,0,0,1-.66-.79l13.6-154.26a.73.73,0,0,1,1.46.13L305.7,437.24a.73.73,0,0,1-.73.67Z"/><path class="cls-1" d="M298.88,292a.73.73,0,0,1-.16-1.45c2.78-.63,5.29-3,6.72-6.24,1.33-3,1.68-6.44,2-9.72a.73.73,0,0,1,1.45.15c-.35,3.39-.71,6.91-2.13,10.16-1.62,3.69-4.51,6.33-7.73,7.08l-.17,0Z"/><path class="cls-1" d="M384.16,281.39h-.11a16.91,16.91,0,0,1-14.32-14.66.72.72,0,0,1,.63-.81.73.73,0,0,1,.82.63,15.45,15.45,0,0,0,13.08,13.4.73.73,0,0,1-.1,1.45Z"/><polygon class="cls-8" points="236.28 168.44 236.3 168.5 236.46 168.2 236.28 168.44 236.28 168.44"/><path class="cls-8" d="M212.71,165.72l0,0a1.35,1.35,0,0,0-.3.14h0c-.9.49-3.19,2.19-1.11,6.26,0,0-6.1,2-2.82,7.47,0,0-5.1,3.16-.91,7l.38.31c2.34,1.9,7.88,3.72,11.9,4.86l27.75,34.75a24.19,24.19,0,0,0,27.55,7.72q.51-.19,1-.42l1.51-.67h0l18.29-9.79,2.94-4-10.34-33.71-13,7.19h0L263.69,200,236.45,168.2l-.15.3,0-.06-5.05-14.94a3.79,3.79,0,0,0-3.16-3.15,3.62,3.62,0,0,0-1.23,0,3.8,3.8,0,0,0-3.18,3.81l.1,7.74s-20.22-13.3-22-10.09c-3.68,6.66,10.93,13.9,10.93,13.9Z"/><path class="cls-8" d="M221.89,170.22c.74.7,2.39,2.57,1.2,4.45-1.08,1.71-3.51,2.34-4.76,2.55l-.28.55a3.56,3.56,0,0,1,1,3c-.3,2.21-3.59,2.63-3.82,2.66.17.16,3,2.8.29,5.07-1.6,1.36-7.88,0-9.87-4.68a3.92,3.92,0,0,1,2.71-5.78,6.09,6.09,0,0,1-1.38-3.68c.15-1.82,2.77-3.15,2.77-3.15s-2.21-2.24-1.27-4.4a3.47,3.47,0,0,1,3.38-1.95"/><path class="cls-7" d="M219,180.2a.74.74,0,0,1-.71-.58,2.92,2.92,0,0,0-1.11-1.68.73.73,0,0,1,.34-1.34s3.72-.3,5-2.32c1.12-1.78-1.25-3.69-1.35-3.77a.73.73,0,0,1-.13-1,.74.74,0,0,1,1-.12c1.22.95,3.14,3.37,1.69,5.69-1.08,1.71-3.23,2.45-4.68,2.77a4.11,4.11,0,0,1,.64,1.48.73.73,0,0,1-.55.87l-.16,0Z"/><path class="cls-7" d="M215.48,189.2a.72.72,0,0,1-.55-.26.73.73,0,0,1,.08-1,2.14,2.14,0,0,0,.89-1.61,3.81,3.81,0,0,0-1.21-2.36.73.73,0,0,1-.05-1,.74.74,0,0,1,1,0,5.22,5.22,0,0,1,1.69,3.46A3.59,3.59,0,0,1,216,189a.78.78,0,0,1-.48.17Z"/><path class="cls-7" d="M213.59,189.71a8,8,0,0,1-1.91-.25,9.78,9.78,0,0,1-6.74-5.38,5,5,0,0,1-.12-4.31,4.93,4.93,0,0,1,2.36-2.12,6,6,0,0,1-1-3.38c.13-1.52,1.5-2.67,2.4-3.28a4.64,4.64,0,0,1-.83-4.51,4.18,4.18,0,0,1,4.12-2.38.73.73,0,0,1-.12,1.45,2.76,2.76,0,0,0-2.67,1.52c-.73,1.67,1.11,3.59,1.12,3.61a.73.73,0,0,1,.2.63.75.75,0,0,1-.39.53c-.62.32-2.28,1.4-2.37,2.55a5.46,5.46,0,0,0,1.21,3.16.74.74,0,0,1,.13.7.72.72,0,0,1-.53.47,4,4,0,0,0-2.36,1.73,3.58,3.58,0,0,0,.16,3.06A8.33,8.33,0,0,0,212,188a3.88,3.88,0,0,0,3-.13.73.73,0,0,1,1,.09.74.74,0,0,1-.08,1,3.72,3.72,0,0,1-2.37.68Z"/><path class="cls-7" d="M212.25,181.57a.71.71,0,0,1-.32-.07,20,20,0,0,1-4.15-3,.72.72,0,0,1,0-1,.73.73,0,0,1,1,0,18.82,18.82,0,0,0,3.79,2.76.73.73,0,0,1-.32,1.38Z"/><path class="cls-7" d="M215.55,175.58a.8.8,0,0,1-.3-.06,49.43,49.43,0,0,1-6-3.74.73.73,0,0,1-.16-1,.72.72,0,0,1,1-.16,50.25,50.25,0,0,0,5.71,3.59.73.73,0,0,1-.3,1.39Z"/><path class="cls-7" d="M217.71,168.71l-.15,0c-2.1-.44-6-3.15-6.15-3.27a.73.73,0,0,1,.84-1.19c1.05.74,4.11,2.72,5.61,3a.73.73,0,0,1-.15,1.44Z"/><polygon class="cls-11" points="298.26 268.39 301.66 178.28 384.17 178.28 385.99 268.39 298.26 268.39 298.26 268.39"/><path class="cls-9" d="M417.47,496.45l-58.18-.3A2.52,2.52,0,0,1,357.2,495l-2.35-31.2,33.08-4.14,4.54,11.55,21.36,16.34,5.66,4.85a2.52,2.52,0,0,1-2,4Z"/><path class="cls-7" d="M355.85,487.12s0,.07,0,.15l0-.15Z"/><path class="cls-7" d="M417.47,496.45l-58.18-.3A2.52,2.52,0,0,1,357.2,495l-.44-5.85,56.37,1.56c2.09,0,1.89-1.59.63-3.26l5.73,5a2.52,2.52,0,0,1-2,4Z"/><path d="M383.39,476.06a.82.82,0,0,1-.76-.49.83.83,0,0,1,.42-1.1l9.08-4a.84.84,0,0,1,.68,1.53l-9.08,4a.83.83,0,0,1-.34.07Z"/><path d="M386,479.5a.83.83,0,0,1-.35-1.59l8.45-3.87a.83.83,0,1,1,.69,1.52l-8.44,3.87a.91.91,0,0,1-.35.07Z"/><path d="M370.06,493.4a.92.92,0,0,1-.28,0,.83.83,0,0,1-.51-1.06c0-.06,2-6-.89-10.35-3.08-4.59-9-4.19-12.2-3.53a.84.84,0,0,1-.33-1.64c2.93-.59,10.16-1.36,13.91,4.24,3.35,5,1.18,11.55,1.08,11.82a.82.82,0,0,1-.78.57Z"/><polygon points="353.3 449.05 387.34 454.28 386.76 449.05 353.3 449.05 353.3 449.05"/><polygon points="287.98 453.8 321.96 449.05 288.5 449.05 287.98 453.8 287.98 453.8"/><path class="cls-8" d="M433.28,181l-2.71,4.94L453.4,202l2.73-4.7c.06-.1,14.91-19.25,14.76-22.85-.19-4.73-4.15-3.16-4.45-3,.16-.27,2.8-4.8-.07-6.38C464.32,164,462.53,167,462,168c.51-1.17,2-5-.28-5.89s-4.37,3.07-4.52,3.36c.09-.36,1.21-5.21-1.75-6-3.33-.87-12,15.75-12,15.75"/><path class="cls-7" d="M456.13,198a.73.73,0,0,1-.61-1.13s.06-.09.17-.22c8.87-11.58,14.55-20.29,14.47-22.19v0c-.06-1.25-.4-2.07-1-2.42a3,3,0,0,0-2.33.07.73.73,0,0,1-.88-.13.71.71,0,0,1-.11-.87c.53-.89,1.43-2.94,1.06-4.29a1.69,1.69,0,0,0-.86-1.08,1.13,1.13,0,0,0-.93-.1c-1,.3-1.93,1.68-2.53,2.86a.72.72,0,0,1-1,.33.73.73,0,0,1-.35-1c.65-1.39,1.25-3.38.83-4.45a1.08,1.08,0,0,0-.63-.64c-1.44-.59-3.12,2.05-3.6,3a.72.72,0,0,1-.9.37.73.73,0,0,1-.46-.87s1.06-4.51-1.22-5.1c-1.64-.43-7.13,7.61-11.21,15.39a.74.74,0,0,1-1,.3.72.72,0,0,1-.3-1c2.1-4,9.24-17.06,12.87-16.12,1.95.51,2.49,2.31,2.56,3.94,1-1.05,2.31-1.91,3.8-1.3a2.53,2.53,0,0,1,1.44,1.46,4.19,4.19,0,0,1,.22,1.88,3.46,3.46,0,0,1,1-.52,2.61,2.61,0,0,1,2.06.21,3.14,3.14,0,0,1,1.57,2,6.47,6.47,0,0,1-.5,3.93,3.57,3.57,0,0,1,2,.35c1.14.61,1.76,1.85,1.84,3.71v.05c0,3.27-9.23,15.85-14.77,23.09l-.13.17a.75.75,0,0,1-.59.29Z"/><path class="cls-7" d="M449.61,185.45a.8.8,0,0,1-.3-.06.74.74,0,0,1-.37-1,6.4,6.4,0,0,0-.31-5.26c-1.45-2.62-5.29-3.18-5.33-3.19a.73.73,0,0,1-.62-.82.72.72,0,0,1,.82-.62c.19,0,4.6.66,6.41,3.92a7.85,7.85,0,0,1,.37,6.56.74.74,0,0,1-.67.43Z"/><path class="cls-7" d="M452.8,174a.73.73,0,0,1-.64-1.09l4.39-7.75a.73.73,0,1,1,1.27.72l-4.39,7.75a.71.71,0,0,1-.63.37Z"/><path class="cls-7" d="M457.06,176.53a.71.71,0,0,1-.4-.11.73.73,0,0,1-.22-1l4.77-7.44a.72.72,0,0,1,1-.22.73.73,0,0,1,.23,1l-4.77,7.44a.73.73,0,0,1-.61.33Z"/><path class="cls-7" d="M462.1,179.38a.67.67,0,0,1-.38-.11.73.73,0,0,1-.24-1l4.33-7.14a.72.72,0,0,1,1-.25.73.73,0,0,1,.24,1L462.73,179a.75.75,0,0,1-.63.35Z"/><path class="cls-8" d="M453.92,201.18l-29.63,48a17.9,17.9,0,0,1-14.37,7.24q-.74,0-1.47-.06a17.89,17.89,0,0,1-15.32-11.66L389,236l-2.83-6L377.31,211c-.9-1.89,28-13.31,28-13.31l5.76,11.51,3.15,6.3,16.35-29.53,23.35,15.24Z"/><path class="cls-11" d="M413.4,207.16c-5.57-12.42-15.78-24.45-18.89-26.19a21.16,21.16,0,0,0-10.34-2.69,2.39,2.39,0,0,1-.23.22c-6.64,4.21-14.33,15.6-9.63,32.64l8.43,22.27,30.66-26.25Z"/><path class="cls-8" d="M330.33,177.86l2.88-18.8h24.32L358.58,178s7.56,25.48-16.77,23.88c-17.62-1.16-16-14.61-11.48-24Z"/><path class="cls-7" d="M334.51,163.44l11.65,1c-3.89,6.26-15.2,8-15.2,8l1.59-8.95Z"/><path class="cls-1" d="M387.82,219.75a.73.73,0,0,1-.45-1.31l17-13.06a.73.73,0,0,1,1,.13.74.74,0,0,1-.14,1l-17,13.06a.73.73,0,0,1-.44.15Z"/><path class="cls-8" d="M365.16,140.08a25.16,25.16,0,1,1-28.26-21.62,25.16,25.16,0,0,1,28.26,21.62Z"/><path class="cls-7" d="M329.61,155h-.09a2.45,2.45,0,0,1-2-1.15,4,4,0,0,1,0-3.43l1-3a.73.73,0,1,1,1.38.47l-1,3a2.88,2.88,0,0,0-.14,2.21,1,1,0,0,0,.82.45,3.48,3.48,0,0,0,1.23-.31.74.74,0,0,1,.95.43.73.73,0,0,1-.43.94,4.77,4.77,0,0,1-1.71.4Z"/><path class="cls-7" d="M338,159.46h-.2a.73.73,0,0,1-.71-.74.75.75,0,0,1,.75-.72,7.52,7.52,0,0,0,6.19-3.1.73.73,0,0,1,1.19.84,9,9,0,0,1-7.22,3.72Z"/><path class="cls-7" d="M341.21,142.94c-.24,1.31-1.18,2.24-2.09,2.08s-1.46-1.36-1.23-2.67,1.18-2.25,2.09-2.08,1.46,1.36,1.23,2.67Z"/><path class="cls-7" d="M324.07,141.68c-.24,1.31-1.17,2.24-2.08,2.08s-1.47-1.37-1.23-2.67,1.17-2.26,2.08-2.09,1.46,1.36,1.23,2.68Z"/><path class="cls-7" d="M362.59,146s-2.84.79-3.88,2.9c0,0-.15,0-2.36-2.6s-2.88-12.64-.18-16.19c0,0-21.93,4.91-32.14-2.49s-8.61-16.52-8.61-16.52l7.22,2.35s-7.8-11.39,3.58-16.85c0,0,2.94,7.55,11.38,8s22.09-.31,30.2,9.48,1.25,15,1.25,15,4.39,3.8,4.08,9.42-7.87,11.2-7.87,11.2l-2.67-3.7Z"/><path class="cls-1" d="M364.94,119.49a.72.72,0,0,1-.72-.64,11.37,11.37,0,0,0-3.31-6.66.73.73,0,0,1,0-1,.72.72,0,0,1,1,0,12.77,12.77,0,0,1,3.73,7.51.73.73,0,0,1-.63.82Z"/><polygon class="cls-12" points="275.56 192.83 280.77 231.44 288.88 227.11 275.56 192.83 275.56 192.83"/><path class="cls-1" d="M340.78,136.57a6.83,6.83,0,1,0,6.83,6.83,6.84,6.84,0,0,0-6.83-6.83Zm0,15.12a8.29,8.29,0,1,1,8.29-8.29,8.3,8.3,0,0,1-8.29,8.29Z"/><path class="cls-1" d="M321.89,134.08a6.83,6.83,0,1,0,6.83,6.83,6.85,6.85,0,0,0-6.83-6.83Zm0,15.12a8.29,8.29,0,1,1,8.29-8.29,8.29,8.29,0,0,1-8.29,8.29Z"/><path class="cls-1" d="M333.22,142.5a.71.71,0,0,1-.61-.34,2.08,2.08,0,0,0-1.26-1,1.34,1.34,0,0,0-.92.32.73.73,0,1,1-1-1.05,2.8,2.8,0,0,1,2.11-.72,3.3,3.3,0,0,1,2.31,1.71.74.74,0,0,1-.23,1,.77.77,0,0,1-.39.11Z"/><path class="cls-1" d="M348.34,143.38a.73.73,0,0,1-.44-1.31c.32-.25,8-6,17.36-3.39a.73.73,0,0,1,.5.9.72.72,0,0,1-.89.51c-8.68-2.43-16,3.08-16.08,3.14a.76.76,0,0,1-.45.15Z"/><path class="cls-8" d="M371.54,145.37a6.91,6.91,0,1,1-7.76-5.94,6.91,6.91,0,0,1,7.76,5.94Z"/><polygon class="cls-12" points="411.06 209.17 389.04 235.96 386.21 229.93 411.06 209.17 411.06 209.17"/><path class="cls-1" d="M382.74,234.14a.73.73,0,0,1-.68-.47L374,212.4a.72.72,0,0,1,.42-.94.72.72,0,0,1,.94.42l8.05,21.27a.73.73,0,0,1-.42.94.6.6,0,0,1-.26,0Z"/><path class="cls-11" d="M309.35,178.28l-4.78-.11c-.55,0-2.16-.16-2.72-.11-8,.76-14.59,3.95-21.25,8.46l-9.9,5,16.89,40.6,33.11-17.71-11.35-36.16Z"/><path class="cls-1" d="M291.42,219.75a.73.73,0,0,1-.68-.47l-8.33-22.48a.73.73,0,0,1,.43-.94.74.74,0,0,1,.94.43l8.33,22.48a.74.74,0,0,1-.43.94.78.78,0,0,1-.26,0Z"/><path class="cls-1" d="M299.87,226.31h0a.73.73,0,0,1-.71-.75l.64-24.38a.73.73,0,0,1,.73-.71h0a.73.73,0,0,1,.71.75l-.64,24.38a.73.73,0,0,1-.73.71Z"/><path class="cls-9" d="M468.19,244.34a4.32,4.32,0,0,1-5.82-1.86l-6.59-12.75a4.33,4.33,0,0,1,1.85-5.82l25.29-13.07a4.33,4.33,0,0,1,5.82,1.86l6.59,12.75a4.32,4.32,0,0,1-1.86,5.82l-25.28,13.07Zm-.77,13.33,37.37-19.31A9.92,9.92,0,0,0,509.05,225l-12-23.23a9.92,9.92,0,0,0-13.36-4.26l-10.87,5.62-28.91-56,9.76-5a3.43,3.43,0,0,0,1.47-4.62l-6-11.64a3.44,3.44,0,0,0-4.63-1.47l-6,3.08-3.29-6.36,6-3.08a3.43,3.43,0,0,0,1.48-4.63l-2.86-5.53a3.43,3.43,0,0,0-4.63-1.48l-9.75,5-7.38,3.82-5.15,2.66a3.43,3.43,0,0,0-1.47,4.62l45.79,88.67-10.93,5.65a9.92,9.92,0,0,0-4.26,13.36l12,23.23a9.91,9.91,0,0,0,13.36,4.26Z"/><polygon points="439.92 165.2 439.9 165.22 439.85 165.13 439.92 165.2 439.92 165.2"/><polygon points="439.8 165.05 439.85 165.13 439.78 165.07 439.8 165.05 439.8 165.05"/><path class="cls-8" d="M443.4,183.46l-2-15.65a3,3,0,0,0-2.14-2.14,3.09,3.09,0,0,0-1.57,0,3,3,0,0,0-2.26,3.35l-2.16,12"/><path class="cls-7" d="M443.4,184.19a.73.73,0,0,1-.72-.64l-2-15.59a2.33,2.33,0,0,0-4.54.95.89.89,0,0,1,0,.23l-1.44,8a.73.73,0,0,1-.85.58.72.72,0,0,1-.59-.84L434.7,169a3.79,3.79,0,0,1,2.82-4,3.75,3.75,0,0,1,1.94,0,3.79,3.79,0,0,1,2.66,2.67s0,.06,0,.09l2,15.64a.74.74,0,0,1-.63.82Z"/><path class="cls-1" d="M221.11,251H98.31a3.91,3.91,0,0,1-3.9-3.9V226.87a3.9,3.9,0,0,1,3.9-3.89h122.8a3.89,3.89,0,0,1,3.89,3.89v20.19a3.9,3.9,0,0,1-3.89,3.9Z"/><path class="cls-2" d="M105.42,223.71A10.29,10.29,0,0,0,95.14,234v6a10.29,10.29,0,0,0,10.28,10.28H214A10.29,10.29,0,0,0,224.27,240v-6A10.29,10.29,0,0,0,214,223.71Zm108.58,28H105.42A11.75,11.75,0,0,1,93.68,240v-6a11.76,11.76,0,0,1,11.74-11.74H214A11.75,11.75,0,0,1,225.73,234v6A11.74,11.74,0,0,1,214,251.68Z"/><path class="cls-1" d="M221.11,292.16H98.31a3.9,3.9,0,0,1-3.9-3.89V268.08a3.9,3.9,0,0,1,3.9-3.89h122.8a3.89,3.89,0,0,1,3.89,3.89v20.19a3.89,3.89,0,0,1-3.89,3.89Z"/><path class="cls-2" d="M105.42,264.92a10.29,10.29,0,0,0-10.28,10.27v6a10.29,10.29,0,0,0,10.28,10.27H214a10.29,10.29,0,0,0,10.27-10.27v-6A10.29,10.29,0,0,0,214,264.92Zm108.58,28H105.42a11.75,11.75,0,0,1-11.74-11.73v-6a11.75,11.75,0,0,1,11.74-11.73H214a11.74,11.74,0,0,1,11.73,11.73v6A11.74,11.74,0,0,1,214,292.89Z"/><path class="cls-13" d="M196.74,278.18a4.38,4.38,0,1,1-4.38-4.38,4.38,4.38,0,0,1,4.38,4.38Z"/><path class="cls-14" d="M200.57,340.89H118.84a6.27,6.27,0,0,1-6.28-6.27V311.67a6.28,6.28,0,0,1,6.28-6.27h81.73a6.28,6.28,0,0,1,6.28,6.27v22.95a6.27,6.27,0,0,1-6.28,6.27Z"/><path class="cls-2" d="M130.31,306.13a17,17,0,1,0,0,34H189.1a17,17,0,1,0,0-34Zm58.79,35.49H130.31a18.48,18.48,0,1,1,0-36.95H189.1a18.48,18.48,0,1,1,0,36.95Z"/><path class="cls-9" d="M198.12,167.4A38.42,38.42,0,1,1,159.71,129a38.2,38.2,0,0,1,38.41,38.41Z"/><path class="cls-2" d="M159.71,129.72a37.66,37.66,0,0,0-27.41,63.5,37.67,37.67,0,0,0,65.09-25.82,37.72,37.72,0,0,0-37.68-37.68Zm0,76.81a39.16,39.16,0,1,1,28.18-12,38.75,38.75,0,0,1-28.18,12Z"/><path class="cls-1" d="M171.23,158.07a11.76,11.76,0,1,1-11.76-11.75,11.77,11.77,0,0,1,11.76,11.75Z"/><path class="cls-2" d="M159.47,147.05a11,11,0,1,0,11,11,11,11,0,0,0-11-11Zm0,23.51A12.49,12.49,0,1,1,172,158.07a12.5,12.5,0,0,1-12.48,12.49Z"/><path class="cls-1" d="M187.36,194a38.36,38.36,0,0,1-55.59-.31,31.77,31.77,0,0,1,55.59.31Z"/><path class="cls-2" d="M132.67,193.61a37.63,37.63,0,0,0,53.79.3,31,31,0,0,0-53.79-.3Zm27,12.92a39.15,39.15,0,0,1-28.47-12.31.71.71,0,0,1-.11-.85,32.51,32.51,0,0,1,56.88.31.74.74,0,0,1-.12.86,38.75,38.75,0,0,1-28.18,12Z"/><polygon class="cls-13" points="124.03 233.62 107.98 233.62 107.98 240.32 124.03 240.32 124.03 233.62 124.03 233.62"/><polygon class="cls-13" points="133.06 233.62 133.06 240.32 200.53 240.32 200.53 233.62 133.06 233.62 133.06 233.62"/><path class="cls-13" d="M131.43,278.18a4.38,4.38,0,1,1-4.38-4.38,4.38,4.38,0,0,1,4.38,4.38Z"/><path class="cls-13" d="M147.76,278.18a4.38,4.38,0,1,1-4.38-4.38,4.38,4.38,0,0,1,4.38,4.38Z"/><path class="cls-13" d="M164.08,278.18a4.38,4.38,0,1,1-4.37-4.38,4.37,4.37,0,0,1,4.37,4.38Z"/><path class="cls-13" d="M180.41,278.18A4.38,4.38,0,1,1,176,273.8a4.37,4.37,0,0,1,4.37,4.38Z"/><path class="cls-1" d="M141.44,328.66a4.11,4.11,0,0,1,0,.53,2,2,0,0,1-.08.36.42.42,0,0,1-.13.21.31.31,0,0,1-.19.06h-6.24a.87.87,0,0,1-.58-.2A.84.84,0,0,1,134,329V316.58a.26.26,0,0,1,.07-.19.4.4,0,0,1,.22-.14,2.64,2.64,0,0,1,.43-.09,6.19,6.19,0,0,1,.67,0,6.06,6.06,0,0,1,.67,0,2.28,2.28,0,0,1,.42.09.4.4,0,0,1,.23.14.26.26,0,0,1,.07.19v11H141a.31.31,0,0,1,.19.06.37.37,0,0,1,.13.18,2,2,0,0,1,.08.35,4.19,4.19,0,0,1,0,.53Z"/><path class="cls-1" d="M152.05,323a10.49,10.49,0,0,0-.17-1.95,4.17,4.17,0,0,0-.57-1.51,2.73,2.73,0,0,0-1.08-1,3.69,3.69,0,0,0-1.69-.34,3.48,3.48,0,0,0-1.7.38,3.14,3.14,0,0,0-1.11,1,4.17,4.17,0,0,0-.59,1.5A8.85,8.85,0,0,0,145,323a11,11,0,0,0,.17,2,4.22,4.22,0,0,0,.57,1.52,2.57,2.57,0,0,0,1.07,1,3.87,3.87,0,0,0,1.7.33,3.48,3.48,0,0,0,1.7-.38,3.05,3.05,0,0,0,1.11-1,4.35,4.35,0,0,0,.59-1.52,9.14,9.14,0,0,0,.18-1.85Zm2.9-.15a10.09,10.09,0,0,1-.42,3,6.09,6.09,0,0,1-1.25,2.27,5.29,5.29,0,0,1-2.06,1.42,7.54,7.54,0,0,1-2.84.49,8.33,8.33,0,0,1-2.77-.41,4.77,4.77,0,0,1-2-1.27,5.35,5.35,0,0,1-1.19-2.17,11.05,11.05,0,0,1-.4-3.12,9.77,9.77,0,0,1,.43-3,6.16,6.16,0,0,1,1.25-2.25,5.39,5.39,0,0,1,2.06-1.42,7.59,7.59,0,0,1,2.85-.5,8.43,8.43,0,0,1,2.73.41,4.87,4.87,0,0,1,2,1.27,5.48,5.48,0,0,1,1.2,2.15,10.39,10.39,0,0,1,.4,3.07Z"/><path class="cls-1" d="M168.21,318.31c0,.21,0,.38,0,.53a1.84,1.84,0,0,1-.08.35.48.48,0,0,1-.11.19.31.31,0,0,1-.17.05,1,1,0,0,1-.44-.19,6,6,0,0,0-.81-.41,7.74,7.74,0,0,0-1.21-.41,6,6,0,0,0-1.62-.19,4.46,4.46,0,0,0-1.79.34,3.84,3.84,0,0,0-1.37,1,4.42,4.42,0,0,0-.88,1.51,5.94,5.94,0,0,0-.3,1.94,6.2,6.2,0,0,0,.31,2.06,4.28,4.28,0,0,0,.87,1.49,3.53,3.53,0,0,0,1.34.9,4.59,4.59,0,0,0,1.73.31,4.06,4.06,0,0,0,.92-.11,3.38,3.38,0,0,0,.84-.31v-3.16h-2.58c-.13,0-.22-.08-.29-.24a2.19,2.19,0,0,1-.11-.81,3.38,3.38,0,0,1,0-.49.88.88,0,0,1,.08-.32.41.41,0,0,1,.12-.18.27.27,0,0,1,.17-.06h4.6a.73.73,0,0,1,.3.06.81.81,0,0,1,.24.17,1.06,1.06,0,0,1,.15.28,1.46,1.46,0,0,1,.05.38v5.42a1.35,1.35,0,0,1-.11.55.83.83,0,0,1-.45.38c-.23.09-.51.18-.85.28s-.69.18-1.05.25a10.23,10.23,0,0,1-1.09.16c-.37,0-.74.05-1.12.05a8.36,8.36,0,0,1-2.92-.47,5.83,5.83,0,0,1-2.18-1.35,6,6,0,0,1-1.37-2.17,8.25,8.25,0,0,1-.47-2.9,8.37,8.37,0,0,1,.5-3,6.47,6.47,0,0,1,1.43-2.26,6.15,6.15,0,0,1,2.24-1.43,8.21,8.21,0,0,1,2.92-.5,8.82,8.82,0,0,1,1.61.13,8.3,8.3,0,0,1,1.27.29,5.72,5.72,0,0,1,.9.37,2.27,2.27,0,0,1,.5.35.83.83,0,0,1,.21.42,3.88,3.88,0,0,1,.06.79Z"/><path class="cls-1" d="M173.8,329.44a.31.31,0,0,1-.06.19.56.56,0,0,1-.23.14,2.87,2.87,0,0,1-.42.08,7.61,7.61,0,0,1-1.35,0,2.63,2.63,0,0,1-.42-.08.5.5,0,0,1-.23-.14.32.32,0,0,1-.07-.19V316.58a.32.32,0,0,1,.07-.19.43.43,0,0,1,.23-.14,2.64,2.64,0,0,1,.43-.09,6,6,0,0,1,.66,0,6.26,6.26,0,0,1,.68,0,2.73,2.73,0,0,1,.42.09.48.48,0,0,1,.23.14.31.31,0,0,1,.06.19v12.86Z"/><path class="cls-1" d="M188,328.85a1,1,0,0,1-.09.44.79.79,0,0,1-.23.31.76.76,0,0,1-.33.18,1.34,1.34,0,0,1-.4.06h-1.18a2.38,2.38,0,0,1-.63-.07,1.29,1.29,0,0,1-.5-.27,2.41,2.41,0,0,1-.43-.53,9.6,9.6,0,0,1-.48-.86l-3.39-6.36-.6-1.23c-.2-.44-.38-.87-.55-1.28h0c0,.5,0,1,.06,1.51s0,1,0,1.55v7.13a.31.31,0,0,1-.06.19.45.45,0,0,1-.2.14,1.63,1.63,0,0,1-.38.09,3.84,3.84,0,0,1-.63,0,3.64,3.64,0,0,1-.61,0,1.41,1.41,0,0,1-.38-.09.41.41,0,0,1-.19-.14.38.38,0,0,1,0-.19V317.19a1,1,0,0,1,.29-.75,1.07,1.07,0,0,1,.71-.24h1.49a3.2,3.2,0,0,1,.67.06,1.58,1.58,0,0,1,.49.23,2,2,0,0,1,.41.44,6.54,6.54,0,0,1,.39.69l2.65,5,.46.89c.15.29.29.58.43.87l.41.86q.21.42.39.84h0c0-.49,0-1,0-1.53s0-1,0-1.53v-6.39a.31.31,0,0,1,.06-.19.57.57,0,0,1,.21-.15,1.59,1.59,0,0,1,.4-.09,5,5,0,0,1,.62,0,5.21,5.21,0,0,1,.6,0,1.33,1.33,0,0,1,.37.09.35.35,0,0,1,.18.15.31.31,0,0,1,.06.19v12.24Z"/><path class="cls-1" d="M86.82,172.76s16.7,42.66-17.9,73.49c-46.33.86-63-41.8-63-41.8C30.05,181.5,36.7,163.94,36.7,163.94s16.8,8.38,50.12,8.82Z"/><path class="cls-2" d="M6.76,204.63A74.91,74.91,0,0,0,20.6,225.21a63.4,63.4,0,0,0,48,20.32A63.41,63.41,0,0,0,90.12,198a75,75,0,0,0-3.81-24.5c-29.06-.46-45.7-7-49.23-8.58-1.54,3.53-9.3,19.66-30.32,39.72ZM67.57,247A64.74,64.74,0,0,1,19.5,226.17,75.18,75.18,0,0,1,5.21,204.71a.71.71,0,0,1,.18-.79C29.13,181.37,36,163.85,36,163.68a.72.72,0,0,1,.42-.42.71.71,0,0,1,.59,0c.17.09,17.07,8.32,49.81,8.75a.74.74,0,0,1,.67.47A75.28,75.28,0,0,1,91.58,198,64.82,64.82,0,0,1,69.41,246.8a.74.74,0,0,1-.47.18Z"/><path class="cls-6" d="M33,213.38a21.56,21.56,0,1,0,13.16-27.51A21.57,21.57,0,0,0,33,213.38Z"/><path class="cls-1" d="M52.4,214.08a1.29,1.29,0,0,1-.54-.12l-5.48-2.62a1.25,1.25,0,1,1,1.08-2.25l4.35,2.07,6.71-14a1.25,1.25,0,0,1,2.26,1.08l-7.25,15.17a1.26,1.26,0,0,1-1.13.71Z"/><path class="cls-9" d="M441.33,72l7.41,13.73L479,60.1a.28.28,0,0,0-.34-.45l-28.33,18.7-4.36-8.52-4.6,2.2Z"/><path class="cls-9" d="M489,72.09h-.65c0,5.88-3.09,11.23-8.15,15.15a32.73,32.73,0,0,1-19.89,6.36,33.89,33.89,0,0,1-16.05-3.89l-.28-.15-14.4,6.26,9.06-10.09-.45-.43a18.48,18.48,0,0,1-5.93-13.21c0-5.88,3.09-11.24,8.15-15.15a34.3,34.3,0,0,1,39.79,0c5.06,3.91,8.15,9.27,8.15,15.15h1.3c0-6.36-3.34-12.08-8.66-16.18a35.58,35.58,0,0,0-41.37,0C434.31,60,431,65.73,431,72.09a19.81,19.81,0,0,0,6.32,14.14l.46-.47-.49-.43L424.64,99.39l19.58-8.51-.26-.6-.31.58a35.14,35.14,0,0,0,16.67,4A33.93,33.93,0,0,0,481,88.27c5.32-4.1,8.66-9.83,8.66-16.18Z"/></svg>